<?xml version="1.0" encoding="UTF-8"?>
<svg version="1.1" xmlns="http://www.w3.org/2000/svg" width="246" height="326">
<path d="M0 0 C1.19882813 0.16242187 2.39765625 0.32484375 3.6328125 0.4921875 C10.04017567 1.20244358 16.43563294 1.14577215 22.875 1.125 C24.70804687 1.13080078 24.70804687 1.13080078 26.578125 1.13671875 C27.74601563 1.13542969 28.91390625 1.13414063 30.1171875 1.1328125 C31.17534668 1.13168457 32.23350586 1.13055664 33.32373047 1.12939453 C36.10278168 1.11576421 36.10278168 1.11576421 39 0 C40.66666667 0.33333333 42.33333333 0.66666667 44 1 C44.99 0.67 45.98 0.34 47 0 C48.66668831 0.33322509 50.33334992 0.66658376 52 1 C54.77644089 1.07066084 57.52575679 1.09286297 60.30078125 1.0625 C61.09598679 1.05871338 61.89119232 1.05492676 62.710495 1.05102539 C66.09474123 1.03477063 69.47886404 1.00670292 72.86303711 0.97949219 C75.34227934 0.96127832 77.8215013 0.94926341 80.30078125 0.9375 C81.05313553 0.92920166 81.80548981 0.92090332 82.5806427 0.91235352 C96.37254371 0.84943067 96.37254371 0.84943067 100.8125 4.1875 C101.62654297 4.76564453 101.62654297 4.76564453 102.45703125 5.35546875 C106.45585332 9.61750443 107.37432377 14.03356602 107.36076355 19.71981812 C107.36332682 20.37014594 107.3658901 21.02047376 107.36853105 21.69050848 C107.37344716 23.85561597 107.35701311 26.02001606 107.34057617 28.18505859 C107.33972942 29.74257389 107.34020597 31.30009038 107.34190369 32.85760498 C107.34276321 37.07622883 107.32514449 41.29459595 107.30418181 45.51316023 C107.28540782 49.92539634 107.283664 54.33763856 107.28010559 58.74990845 C107.27078725 67.10085038 107.24617632 75.45167427 107.21605712 83.80256426 C107.18250655 93.31157475 107.16602545 102.82059092 107.15097082 112.32964587 C107.11962658 131.88649643 107.06687017 151.44324077 107 171 C107.66 171.33 108.32 171.66 109 172 C108.34 172 107.68 172 107 172 C107.01252808 172.76086411 107.02505615 173.52172821 107.03796387 174.3056488 C107.38560899 195.52550121 107.69929675 216.74567458 107.97348022 237.96660614 C107.99842151 239.87896987 108.02420666 241.79132255 108.05004883 243.70367432 C108.13031817 249.70273457 108.19730372 255.70145169 108.23217773 261.70095825 C108.24395202 263.38498411 108.2609444 265.0689825 108.28344727 266.75289917 C108.51629214 284.87285978 108.51629214 284.87285978 103.24609375 291.05859375 C102.64925781 291.51363281 102.05242187 291.96867187 101.4375 292.4375 C100.83808594 292.91058594 100.23867187 293.38367188 99.62109375 293.87109375 C96.05718637 296.35294732 92.91690458 296.1509797 88.71408081 296.15390015 C87.9543922 296.1582824 87.19470358 296.16266465 86.4119941 296.1671797 C83.85262252 296.18059174 81.2932854 296.186752 78.73388672 296.19287109 C76.90422916 296.20077031 75.07457316 296.20903914 73.24491882 296.21765137 C67.22319024 296.24389719 61.20145462 296.25918373 55.1796875 296.2734375 C53.10769776 296.27879654 51.03570806 296.28417405 48.96371841 296.28956985 C40.34412425 296.31120427 31.72453198 296.32994048 23.10491753 296.34119225 C10.74875432 296.35742679 -1.60709415 296.39058624 -13.9631387 296.44759309 C-22.64858255 296.48629896 -31.33394226 296.50582584 -40.0194701 296.51111281 C-45.20767383 296.51476599 -50.3955421 296.52678351 -55.5836525 296.55921555 C-60.46747523 296.58930659 -65.3507597 296.59560423 -70.23465538 296.58383179 C-72.02448089 296.58361113 -73.81433144 296.59191012 -75.60407066 296.60948563 C-92.46552908 296.76601517 -92.46552908 296.76601517 -99 291 C-101.94436496 286.69217662 -102.4430891 282.96685426 -102.6875 277.8125 C-102.72166016 277.14887451 -102.75582031 276.48524902 -102.79101562 275.80151367 C-103.00505826 271.28313909 -103.02528784 266.78059974 -102.9671936 262.25924683 C-102.99767505 259.23097913 -103.1620457 256.23192022 -103.36014748 253.21076775 C-104.34936146 237.35685295 -104.05037108 221.47354783 -103.93239641 205.59856939 C-103.90129523 201.28319319 -103.87595152 196.96778219 -103.84970093 192.65237427 C-103.80482 185.4225157 -103.75537066 178.19269949 -103.703125 170.96289062 C-103.64295522 162.62846199 -103.59021342 154.29401085 -103.54135668 145.95950878 C-103.49389739 137.89383421 -103.4411325 129.82820253 -103.38599777 121.76257706 C-103.3627584 118.34897818 -103.34136038 114.93537532 -103.32149124 111.52175522 C-103.29787467 107.50454374 -103.26958803 103.48739071 -103.23780251 99.47023582 C-103.22692898 98.00377812 -103.21761367 96.53730784 -103.21003914 95.07082939 C-103.16898834 87.32315471 -102.98217022 79.69107536 -102 72 C-101.34 72 -100.68 72 -100 72 C-99.72905518 71.4030835 -99.45811035 70.80616699 -99.17895508 70.19116211 C-98.01563082 68.02905086 -96.88073546 66.64906014 -95.13671875 64.94140625 C-94.57919922 64.39033203 -94.02167969 63.83925781 -93.44726562 63.27148438 C-92.57618164 62.42553711 -92.57618164 62.42553711 -91.6875 61.5625 C-90.83381836 60.72235352 -90.83381836 60.72235352 -89.96289062 59.86523438 C-88.88733055 58.80696229 -87.80971079 57.7507759 -86.72924805 56.69750977 C-83.11342641 53.14805222 -79.56812213 49.5660351 -76.16233826 45.8129425 C-68.74167756 37.63994935 -60.97619241 29.82327993 -53.16040039 22.0300293 C-50.90586981 19.78094624 -48.65684801 17.52645046 -46.40820312 15.27148438 C-44.96907122 13.83301189 -43.52962989 12.3948489 -42.08984375 10.95703125 C-41.08678444 9.95093559 -41.08678444 9.95093559 -40.0634613 8.92451477 C-39.44173538 8.30594101 -38.82000946 7.68736725 -38.17944336 7.05004883 C-37.6360582 6.50745926 -37.09267303 5.96486969 -36.53282166 5.40583801 C-33.52174142 2.64420489 -31.48529412 1.74363481 -27.5 1.5859375 C-26.61723389 1.54718506 -25.73446777 1.50843262 -24.82495117 1.46850586 C-23.42660034 1.42222046 -23.42660034 1.42222046 -22 1.375 C-20.58328003 1.31807983 -20.58328003 1.31807983 -19.13793945 1.26000977 C-12.75882494 1.01793167 -6.38363598 0.8654503 0 1 C0 0.67 0 0.34 0 0 Z M-6 40 C-6.76956136 42.34533951 -6.76956136 42.34533951 -7 45 C-6.04132671 46.80506226 -6.04132671 46.80506226 -4 48 C-1.43377285 48.28562655 0.88787701 48.38955859 3.453125 48.35644531 C4.58772156 48.35951187 4.58772156 48.35951187 5.74523926 48.36264038 C8.24707161 48.36564998 10.74824591 48.34716581 13.25 48.328125 C14.98730303 48.32506745 16.7246085 48.3231913 18.46191406 48.32244873 C22.103611 48.31784448 25.74508696 48.30341433 29.38671875 48.28125 C34.05758836 48.2529676 38.72828386 48.24203853 43.39923096 48.2375679 C46.98683417 48.2334131 50.5744021 48.2235951 54.1619873 48.21169281 C55.88439654 48.20599065 57.60680916 48.20123176 59.32922363 48.19742584 C61.73516813 48.19055926 64.1409746 48.17692486 66.546875 48.16113281 C67.26073364 48.16001495 67.97459229 48.15889709 68.71008301 48.15774536 C71.74950998 48.13129244 74.09197805 47.96934065 77 47 C77.04254356 45.00045254 77.04080783 42.99958364 77 41 C72.89755705 36.89755705 55.03885467 38.8744985 49.61968994 38.86105347 C47.6500528 38.86408981 47.6500528 38.86408981 45.640625 38.8671875 C44.23435449 38.86651135 42.82808409 38.86553876 41.42181396 38.86428833 C38.51101541 38.86283178 35.600248 38.86490291 32.68945312 38.86962891 C28.96057859 38.87538937 25.23177506 38.87199497 21.50290298 38.86605644 C18.6153306 38.86244941 15.72777521 38.86358897 12.84020233 38.86618423 C11.4638849 38.86684982 10.08756592 38.86603797 8.71125031 38.86370468 C6.80001352 38.86116897 4.88877128 38.86571817 2.97753906 38.87060547 C1.34996674 38.87179886 1.34996674 38.87179886 -0.31048584 38.87301636 C-3.10073657 38.88294871 -3.10073657 38.88294871 -6 40 Z M0 70 C0.33 71.65 0.66 73.3 1 75 C5.44991645 76.70396017 9.13671651 77.25242397 13.89160156 77.25878906 C14.55250793 77.2622937 15.21341431 77.26579834 15.89434814 77.26940918 C18.05988329 77.2781503 20.22508705 77.27240737 22.390625 77.265625 C23.90183576 77.2669732 25.41304609 77.26891503 26.92425537 77.27142334 C30.08138179 77.2743637 33.23839464 77.27010967 36.39550781 77.26074219 C40.44653406 77.24930899 44.49729641 77.25593823 48.54831314 77.26788712 C51.66406253 77.27510181 54.77974893 77.27282029 57.89550018 77.26763153 C59.38987001 77.26629597 60.88424552 77.26793949 62.3786087 77.27259064 C64.46121991 77.27765381 66.54339776 77.26995089 68.62597656 77.25878906 C70.40418793 77.25640228 70.40418793 77.25640228 72.21832275 77.25396729 C75.14026468 77.2863263 75.14026468 77.2863263 77 75 C77.16687448 72.41645782 77.16687448 72.41645782 77 70 C73.41418742 67.76679882 70.44942996 67.74672348 66.27539062 67.74121094 C65.60823532 67.7377063 64.94108002 67.73420166 64.25370789 67.73059082 C62.05444855 67.72180813 59.85551245 67.72761025 57.65625 67.734375 C56.12455178 67.73302735 54.59285398 67.73108598 53.06115723 67.72857666 C49.85339275 67.7256301 46.64573978 67.72990796 43.43798828 67.73925781 C39.32881037 67.75065213 35.21989373 67.74409015 31.1107254 67.73211288 C27.94856807 67.72488164 24.78647256 67.72718802 21.62431335 67.73236847 C20.10926787 67.73370147 18.59421676 67.7320695 17.07917786 67.72740936 C14.96083739 67.72232328 12.8429185 67.73008323 10.72460938 67.74121094 C8.91736389 67.74359772 8.91736389 67.74359772 7.0736084 67.74603271 C4.13936302 67.98848466 2.47076424 68.46123758 0 70 Z M1 97 C-0.24704512 102.37064854 -1.49208501 107.74175674 -2.73535156 113.11328125 C-3.15766598 114.93664793 -3.580507 116.75989273 -4.00390625 118.58300781 C-4.61600484 121.2190739 -5.22614326 123.85558752 -5.8359375 126.4921875 C-6.02247894 127.29365204 -6.20902039 128.09511658 -6.4012146 128.92086792 C-7.71042955 134.59340034 -8.88567259 140.28609636 -10 146 C-10.66 146 -11.32 146 -12 146 C-12 145.34 -12 144.68 -12 144 C-13.75674121 142.6719936 -13.75674121 142.6719936 -15.9375 141.4375 C-19.94347826 139.05652174 -19.94347826 139.05652174 -21 138 C-22.84748098 136.63672621 -24.70285783 135.28413743 -26.5625 133.9375 C-27.57441406 133.20402344 -28.58632812 132.47054687 -29.62890625 131.71484375 C-30.41136719 131.14894531 -31.19382813 130.58304688 -32 130 C-32.99 130.495 -32.99 130.495 -34 131 C-34 131.66 -34 132.32 -34 133 C-34.99 133 -35.98 133 -37 133 C-35.24320202 136.93327547 -32.75453051 140.3323406 -30.25 143.8125 C-29.80479004 144.43471436 -29.35958008 145.05692871 -28.90087891 145.69799805 C-25.79913553 149.9939745 -22.50969317 154.0285051 -19 158 C-19 158.33 -19 158.66 -19 159 C-22.3231901 160.94450452 -25.12623206 161.36932639 -28.9375 161.75 C-37.1053755 162.75080688 -45.13230062 164.34277726 -53.1875 166 C-54.47712646 166.26135742 -55.76675293 166.52271484 -57.09545898 166.79199219 C-58.31563721 167.04625977 -59.53581543 167.30052734 -60.79296875 167.5625 C-61.8914917 167.79066406 -62.99001465 168.01882812 -64.12182617 168.25390625 C-66.67376355 168.91543145 -68.71494838 169.70987847 -71 171 C-65.78661198 173.92775767 -59.93341102 174.57342772 -54.125 175.6875 C-52.95324219 175.92533203 -51.78148437 176.16316406 -50.57421875 176.40820312 C-48.87072266 176.73788086 -48.87072266 176.73788086 -47.1328125 177.07421875 C-45.58424561 177.37718872 -45.58424561 177.37718872 -44.00439453 177.6862793 C-40.78355506 178.02260131 -38.15512836 177.67265052 -35 177 C-35.33 177.66 -35.66 178.32 -36 179 C-34.2508503 179.33776684 -32.50063855 179.67003671 -30.75 180 C-29.28820312 180.2784375 -29.28820312 180.2784375 -27.796875 180.5625 C-24.81315721 181.10303017 -24.81315721 181.10303017 -21 181 C-23.96346414 186.36951478 -27.24387679 191.40837576 -30.75 196.4375 C-31.25660156 197.16904297 -31.76320312 197.90058594 -32.28515625 198.65429688 C-33.52089713 200.43796059 -34.76008963 202.21923217 -36 204 C-35.01 204.99 -35.01 204.99 -34 206 C-34.99 206.99 -35.98 207.98 -37 209 C-36.01 209.99 -35.02 210.98 -34 212 C-33.30648437 211.4328125 -32.61296875 210.865625 -31.8984375 210.28125 C-28.88115508 207.90646168 -25.78382783 205.6797624 -22.625 203.5 C-22.05499268 203.10562744 -21.48498535 202.71125488 -20.89770508 202.30493164 C-17.02999989 199.65135866 -13.13388188 197.21114612 -9 195 C-8.86078125 196.7015625 -8.86078125 196.7015625 -8.71875 198.4375 C-7.95674004 205.28485714 -6.43542384 211.99496119 -4.98876953 218.72314453 C-4.49545048 221.02119323 -4.01098513 223.32099101 -3.52734375 225.62109375 C-3.21666587 227.08083994 -2.9054866 228.54047954 -2.59375 230 C-2.37652283 231.03265991 -2.37652283 231.03265991 -2.15490723 232.08618164 C-1.6546319 235.31914459 -1.6546319 235.31914459 0 238 C0.66 238.33 1.32 238.66 2 239 C2.33 239.66 2.66 240.32 3 241 C3.32274902 239.74340576 3.64549805 238.48681152 3.97802734 237.19213867 C5.1762024 232.53341255 6.38188067 227.87665586 7.58984375 223.22045898 C8.11175351 221.20438777 8.63162288 219.18778722 9.14941406 217.1706543 C9.8937343 214.27251083 10.64535511 211.37634598 11.3984375 208.48046875 C11.6287265 207.57725388 11.8590155 206.674039 12.09628296 205.74345398 C12.31636017 204.90280899 12.53643738 204.062164 12.76318359 203.19604492 C12.95415619 202.45658127 13.14512878 201.71711761 13.34188843 200.95524597 C14 199 14 199 16 196 C38.70651962 212.59561202 38.70651962 212.59561202 45.20703125 217.75 C46.90915913 219.190634 46.90915913 219.190634 49 219 C47.47554471 214.41797244 44.88350531 210.86882618 42 207.0625 C41.0109296 205.73626524 40.02266798 204.409427 39.03515625 203.08203125 C38.53258301 202.40865723 38.03000977 201.7352832 37.51220703 201.04150391 C35.11509935 197.80536983 32.77383462 194.53015479 30.4375 191.25 C30.02048828 190.66613525 29.60347656 190.08227051 29.17382812 189.48071289 C27.41234111 187.00900774 25.68379365 184.52569048 24 182 C29.32719237 179.53655844 34.7272581 179.20371367 40.50390625 178.5625 C43.50567258 178.07953424 45.44122241 177.56261227 48 176 C48.33 176.33 48.66 176.66 49 177 C51.11182554 176.77026166 53.21568637 176.46552813 55.3125 176.125 C56.46363281 175.94195312 57.61476562 175.75890625 58.80078125 175.5703125 C61.24889052 175.13389742 63.59382727 174.60511671 66 174 C68.08071366 173.63075418 70.16431713 173.27755699 72.25 172.9375 C73.86648437 172.67259766 73.86648437 172.67259766 75.515625 172.40234375 C76.33546875 172.26957031 77.1553125 172.13679688 78 172 C75.27671572 169.27671572 72.36621574 169.07040234 68.7109375 168.37890625 C67.9748526 168.23347885 67.2387677 168.08805145 66.4803772 167.93821716 C64.11326589 167.47242632 61.74422624 167.01739722 59.375 166.5625 C57.83319797 166.2604558 56.29152963 165.95772827 54.75 165.65429688 C44.84434163 163.71150918 34.9240116 161.84642645 25 160 C28.96669939 153.94449846 33.11281898 148.07450507 37.4609375 142.28515625 C39.18620676 140.18271114 39.18620676 140.18271114 39 138 C40.5 136.375 40.5 136.375 42 135 C41.01 132.03 41.01 132.03 40 129 C34.61452624 130.97949359 30.42929081 134.02939261 25.8125 137.375 C24.99330078 137.9525 24.17410156 138.53 23.33007812 139.125 C22.54697266 139.68960938 21.76386719 140.25421875 20.95703125 140.8359375 C20.24522705 141.34688965 19.53342285 141.8578418 18.80004883 142.38427734 C16.86929735 144.11731862 15.99259736 145.62330402 15 148 C12.91488012 142.69461061 11.25666557 137.51028634 9.9921875 131.95703125 C9.73575974 130.85979988 9.73575974 130.85979988 9.47415161 129.74040222 C8.93608091 127.43223393 8.40550944 125.12241643 7.875 122.8125 C7.51219335 121.25314471 7.14891588 119.69389888 6.78515625 118.13476562 C4.11800188 106.66520434 4.11800188 106.66520434 3.51611328 103.2722168 C2.98480754 100.93311438 2.16122802 99.09021044 1 97 Z M-44 123 C-42.84826645 125.46800047 -41.95216435 127.04783565 -40 129 C-40.33 127.35 -40.66 125.7 -41 124 C-41.99 123.67 -42.98 123.34 -44 123 Z M47 123 C46.34 124.32 45.68 125.64 45 127 C45.99 127 46.98 127 48 127 C48.33 125.68 48.66 124.36 49 123 C48.34 123 47.68 123 47 123 Z M-38 127 C-38.33 128.65 -38.66 130.3 -39 132 C-38.01 132.495 -38.01 132.495 -37 133 C-37 132.34 -37 131.68 -37 131 C-36.01 130.67 -35.02 130.34 -34 130 C-34.66 129.01 -35.32 128.02 -36 127 C-36.66 127 -37.32 127 -38 127 Z M-39 208 C-41.48818978 211.6698479 -41.48818978 211.6698479 -42 216 C-40.35 215.34 -38.7 214.68 -37 214 C-36.84188612 210.94729537 -36.84188612 210.94729537 -38 208 C-38.33 208 -38.66 208 -39 208 Z M-46 217 C-45 219 -45 219 -45 219 Z M1 241 C2 244 2 244 2 244 Z M-71 257 C-71.66 258.32 -72.32 259.64 -73 261 C-71.89268972 263.08885455 -71.89268972 263.08885455 -70 265 C-67.28958839 265.59544048 -67.28958839 265.59544048 -64.14793396 265.48774719 C-62.92664795 265.49469101 -61.70536194 265.50163483 -60.44706726 265.50878906 C-59.0915797 265.49622719 -57.73609572 265.48327459 -56.38061523 265.4699707 C-54.95486288 265.47047941 -53.52911022 265.47273453 -52.10336304 265.47660828 C-48.22937544 265.48203475 -44.35586477 265.46259796 -40.48196292 265.43850732 C-36.4323312 265.4172411 -32.38270176 265.41780734 -28.33302307 265.41581726 C-21.53288543 265.40936647 -14.73292746 265.38810629 -7.93286133 265.35668945 C0.80284313 265.31638368 9.5384305 265.29900047 18.27421665 265.28938007 C25.77601676 265.28108545 33.27779193 265.26384603 40.77957034 265.24434257 C43.19532148 265.23827141 45.61107358 265.2331313 48.02682686 265.2279911 C51.81806784 265.21922069 55.60925059 265.20492433 59.40045547 265.1862812 C60.79447351 265.18014937 62.1885001 265.17570441 63.58252907 265.17303848 C65.48000735 265.1690684 67.37746788 265.15831358 69.2749176 265.14717102 C70.33845742 265.14289754 71.40199724 265.13862406 72.49776554 265.13422108 C74.99859566 265.16681174 74.99859566 265.16681174 77 264 C77.83492354 261.57540213 77.83492354 261.57540213 78 259 C76.16825004 256.74446732 76.16825004 256.74446732 73.45815086 256.75390434 C72.3759659 256.75574793 71.29378094 256.75759151 70.17880249 256.75949097 C68.31935753 256.75536697 68.31935753 256.75536697 66.42234802 256.75115967 C65.04116726 256.75823842 63.65998746 256.76550804 62.27880859 256.77294922 C60.83025622 256.77351312 59.38170328 256.77319719 57.93315125 256.77206421 C53.99326293 256.77148886 50.05349565 256.78327252 46.11363554 256.79721212 C41.99899116 256.80968922 37.88434421 256.81088759 33.76968384 256.81326294 C25.97466919 256.81948662 18.17971044 256.8359094 10.38472044 256.85596192 C1.51181567 256.87829336 -7.36109174 256.8893074 -16.23401761 256.89935279 C-34.4893768 256.92027488 -52.74468391 256.95546805 -71 257 Z " fill="#074D83" transform="translate(120,19)"/>
<path d="M0 0 C0.14878601 6.13799526 0.25742416 12.27493151 0.32958984 18.41430664 C0.35968519 20.50075576 0.40057226 22.58707917 0.45263672 24.6730957 C0.52577166 27.67951524 0.5595289 30.68425669 0.5859375 33.69140625 C0.61690521 34.61772354 0.64787292 35.54404083 0.67977905 36.49842834 C0.68281508 42.39638993 -0.38157115 45.47185785 -4.51278687 49.73350525 C-7.19061214 52.01391253 -9.02095131 52.12289358 -12.44970703 52.11352539 C-13.37051056 52.11344986 -14.29131409 52.11337433 -15.24002075 52.11329651 C-16.73382767 52.10555458 -16.73382767 52.10555458 -18.2578125 52.09765625 C-19.27600067 52.0962413 -20.29418884 52.09482635 -21.3432312 52.09336853 C-24.60385035 52.087759 -27.86440151 52.07520488 -31.125 52.0625 C-33.33203026 52.05748623 -35.53906159 52.05292311 -37.74609375 52.04882812 C-43.16408581 52.03778648 -48.58203805 52.02103905 -54 52 C-48.8848616 45.82630107 -43.33074988 40.14988651 -37.67578125 34.47265625 C-37.18856283 33.98261045 -36.70134441 33.49256466 -36.1993618 32.98766899 C-33.63094873 30.40438034 -31.05976553 27.82388909 -28.48608398 25.24584961 C-25.82954888 22.58378518 -23.18245101 19.91253379 -20.5373354 17.23912907 C-18.49634372 15.17956206 -16.44872195 13.12668682 -14.3991909 11.07562065 C-13.4194753 10.09287646 -12.4422637 9.10762939 -11.46761513 8.1198597 C-10.1108862 6.746147 -8.74379434 5.38269223 -7.3762207 4.01977539 C-6.6015596 3.24146866 -5.8268985 2.46316193 -5.02876282 1.66127014 C-3 0 -3 0 0 0 Z " fill="#3081BD" transform="translate(87,44)"/>
<path d="M0 0 C0.66 0 1.32 0 2 0 C0.95902388 3.86648272 -0.03698408 7.49461443 -2 11 C-1.071875 11.4125 -0.14375 11.825 0.8125 12.25 C7.7566835 16.0624929 9.8570674 23.73230223 12 31 C12.35351024 34.39283609 12.34444316 37.60914842 12 41 C10.35 41.66 8.7 42.32 7 43 C7 43.99 7 44.98 7 46 C-0.41720796 47.51798251 -6.67613518 46.16905225 -14 44.5625 C-15.15628906 44.31951172 -16.31257812 44.07652344 -17.50390625 43.82617188 C-20.3385583 43.22878653 -23.17018412 42.61981891 -26 42 C-26 38.08323126 -24.65533036 36.85067751 -22.3125 33.75 C-21.58675781 32.77546875 -20.86101562 31.8009375 -20.11328125 30.796875 C-18.86141785 29.14006503 -17.60902575 27.48365395 -16.35546875 25.828125 C-13.62968785 22.3068143 -13.62968785 22.3068143 -13 18 C-12.01 18 -11.02 18 -10 18 C-10.69941596 14.85262818 -11.76078698 11.97411124 -13 9 C-8.25 6 -8.25 6 -6 6 C-5.34 6.66 -4.68 7.32 -4 8 C-3.525625 7.05125 -3.05125 6.1025 -2.5625 5.125 C-1.70833333 3.41666667 -0.85416667 1.70833333 0 0 Z " fill="#105287" transform="translate(171,138)"/>
<path d="M0 0 C2.375 -0.1875 2.375 -0.1875 5 0 C5.66 0.99 6.32 1.98 7 3 C2.92194992 4.15416512 -1.13298298 4.39484484 -5.34375 4.71875 C-7.66009472 4.96401003 -9.76370968 5.36708765 -12 6 C-11.505 6.99 -11.505 6.99 -11 8 C-11.99 8.33 -12.98 8.66 -14 9 C-14.33 9.99 -14.66 10.98 -15 12 C-14.34 12 -13.68 12 -13 12 C-12.37804052 21.48488207 -14.78426116 30.61881013 -21 38 C-23.25 38.875 -23.25 38.875 -25 39 C-25.45375 38.34 -25.9075 37.68 -26.375 37 C-26.91125 36.34 -27.4475 35.68 -28 35 C-28.66 35 -29.32 35 -30 35 C-30 35.66 -30 36.32 -30 37 C-30.99 37.495 -30.99 37.495 -32 38 C-31.34 38.66 -30.68 39.32 -30 40 C-30.99 40 -31.98 40 -33 40 C-34.31518555 38.61401367 -34.31518555 38.61401367 -35.63671875 36.66796875 C-36.12817383 35.95640625 -36.61962891 35.24484375 -37.12597656 34.51171875 C-37.89893066 33.36123047 -37.89893066 33.36123047 -38.6875 32.1875 C-39.75839533 30.62841197 -40.8300118 29.06981903 -41.90234375 27.51171875 C-42.42683105 26.7439209 -42.95131836 25.97612305 -43.49169922 25.18505859 C-46.13131501 21.3610765 -48.9057392 17.63940889 -51.671875 13.90625 C-53 12 -53 12 -53 11 C-51.35 11 -49.7 11 -48 11 C-47.67 10.34 -47.34 9.68 -47 9 C-44.56616398 8.57259465 -42.20289856 8.24944731 -39.75 8 C-35.22659401 7.5293566 -31.16778579 6.93850502 -27 5 C-26.67 5.33 -26.34 5.66 -26 6 C-23.99764659 5.96216483 -21.996489 5.84524147 -20 5.6875 C-18.906875 5.60886719 -17.81375 5.53023437 -16.6875 5.44921875 C-15.3571875 5.22685547 -15.3571875 5.22685547 -14 5 C-13.67 4.34 -13.34 3.68 -13 3 C-10.05859375 2.3671875 -10.05859375 2.3671875 -6.4375 1.875 C-5.23996094 1.70742187 -4.04242188 1.53984375 -2.80859375 1.3671875 C-1.88175781 1.24601563 -0.95492187 1.12484375 0 1 C0 0.67 0 0.34 0 0 Z " fill="#054B81" transform="translate(196,189)"/>
<path d="M0 0 C2.46800047 1.15173355 4.04783565 2.04783565 6 4 C5.67 4.66 5.34 5.32 5 6 C4.34 6 3.68 6 3 6 C5.44401796 10.51203316 8.08513085 14.61096038 11.21875 18.671875 C12.59863171 20.4754046 13.94668331 22.30331058 15.28125 24.140625 C15.67868408 24.68501221 16.07611816 25.22939941 16.4855957 25.7902832 C17.64353515 27.37724592 18.79647773 28.96785097 19.94921875 30.55859375 C21.8348549 33.2355162 21.8348549 33.2355162 25 34 C24.67 35.32 24.34 36.64 24 38 C23.01 38 22.02 38 21 38 C19.6078125 38.433125 19.6078125 38.433125 18.1875 38.875 C13.39168968 40.31780734 8.463351 40.82916342 3.51171875 41.4921875 C0.47126927 41.93185205 -2.498034 42.48009959 -5.5 43.125 C-9.05993599 43.87693367 -12.34493855 44.19237166 -16 44 C-16 43.67 -16 43.34 -16 43 C-15.030625 42.71125 -14.06125 42.4225 -13.0625 42.125 C-9.89335797 41.35785318 -9.89335797 41.35785318 -9 39 C-8.34 39 -7.68 39 -7 39 C-6.67 35.7 -6.34 32.4 -6 29 C-7.32 31.97 -8.64 34.94 -10 38 C-11.98 37.67 -13.96 37.34 -16 37 C-16.47390462 27.20597118 -14.61970508 17.62620995 -8 10 C-6.33859237 9.32033324 -4.67299959 8.65061095 -3 8 C-2.10169161 4.94727535 -2.10169161 4.94727535 -2 2 C-1.01 2.66 -0.02 3.32 1 4 C0.67 2.68 0.34 1.36 0 0 Z " fill="#0F5286" transform="translate(78,142)"/>
<path d="M0 0 C4.88827088 2.60014409 9.13701881 5.55835056 13.46875 9 C16.34406832 11.27185645 19.25936949 13.48415427 22.1875 15.6875 C23.15042969 16.41324219 24.11335938 17.13898438 25.10546875 17.88671875 C28.02112901 20.01542617 30.98255117 22.01965951 34 24 C33.505 22.515 33.505 22.515 33 21 C33.66 21 34.32 21 35 21 C35.99 23.31 36.98 25.62 38 28 C37.01 27.67 36.02 27.34 35 27 C31.91254344 26.52730801 29.08132345 26.44546641 26 27 C24.36093946 28.13912863 24.36093946 28.13912863 22.9375 29.6875 C19.38926138 33.21057381 15.55180238 34.47800154 10.875 35.9375 C9.83460571 36.27237427 9.83460571 36.27237427 8.77319336 36.61401367 C4.87875766 37.76610001 1.86733889 38.43867856 -2 37 C-3.8125 34.4375 -3.8125 34.4375 -5 32 C-6.32 32.66 -7.64 33.32 -9 34 C-7.97634608 26.46378928 -6.02978373 19.23324009 -3.9375 11.9375 C-3.6679248 10.99688721 -3.39834961 10.05627441 -3.12060547 9.0871582 C-1.14248346 2.28496692 -1.14248346 2.28496692 0 0 Z " fill="#185789" transform="translate(135,214)"/>
<path d="M0 0 C4.06786009 2.60534851 7.20676215 5.44923603 9 10 C9.8020039 15.56739917 9.56199008 20.76366978 6.40234375 25.53125 C2.82171753 29.28143233 -2.84853967 31.71380776 -8 32 C-10.3125 31.0625 -10.3125 31.0625 -12 30 C-12 30.66 -12 31.32 -12 32 C-12.99 32 -13.98 32 -15 32 C-15.495 30.515 -15.495 30.515 -16 29 C-15.67 28.67 -15.34 28.34 -15 28 C-15.7425 27.814375 -16.485 27.62875 -17.25 27.4375 C-21.16528579 25.39087334 -22.04375275 22.9124945 -24 19 C-23.01 17.515 -23.01 17.515 -22 16 C-21.33386665 13.72461677 -21.33386665 13.72461677 -20.875 11.3125 C-20.62363281 10.10013672 -20.62363281 10.10013672 -20.3671875 8.86328125 C-20.18542969 7.94095703 -20.18542969 7.94095703 -20 7 C-20.66 6.67 -21.32 6.34 -22 6 C-21.34 6 -20.68 6 -20 6 C-19.67 4.68 -19.34 3.36 -19 2 C-18.01 2.66 -17.02 3.32 -16 4 C-16 3.34 -16 2.68 -16 2 C-10.44893564 -0.47815373 -5.9240515 -2.15205064 0 0 Z M-19 4 C-18 6 -18 6 -18 6 Z M-22 18 C-21 20 -21 20 -21 20 Z " fill="#135588" transform="translate(128,174)"/>
<path d="M0 0 C0.33 1.32 0.66 2.64 1 4 C1.99 4 2.98 4 4 4 C5.485 4.495 5.485 4.495 7 5 C6.39789562 11.22588339 5.44432627 17.21499894 4.0625 23.3125 C3.89298828 24.09689453 3.72347656 24.88128906 3.54882812 25.68945312 C2.72641976 29.36996509 1.95735602 32.72603679 0 36 C-0.66 36 -1.32 36 -2 36 C-2 35.34 -2 34.68 -2 34 C-2.5775 33.71125 -3.155 33.4225 -3.75 33.125 C-5.2253766 32.3873117 -6.68506123 31.61717166 -8.125 30.8125 C-8.74375 30.544375 -9.3625 30.27625 -10 30 C-10.66 30.33 -11.32 30.66 -12 31 C-12 30.01 -12 29.02 -12 28 C-14.22358348 26.07784728 -14.22358348 26.07784728 -17 24.3125 C-17.928125 23.68988281 -18.85625 23.06726563 -19.8125 22.42578125 C-20.534375 21.95527344 -21.25625 21.48476562 -22 21 C-22.66 21.66 -23.32 22.32 -24 23 C-24.99 23 -25.98 23 -27 23 C-27 21 -27 21 -25 19 C-25.32041397 16.39719432 -25.32041397 16.39719432 -26 14 C-25.34 13.67 -24.68 13.34 -24 13 C-24.33 11.35 -24.66 9.7 -25 8 C-17.64403772 2.66745428 -9.2404125 -0.74922263 0 0 Z " fill="#15588A" transform="translate(110,129)"/>
<path d="M0 0 C1.27043352 5.57036235 2.47189408 11.15418567 3.625 16.75 C4.01558594 18.62945312 4.01558594 18.62945312 4.4140625 20.546875 C4.90926023 23.46524032 5.12368243 26.0541095 5 29 C4.01 28.01 3.02 27.02 2 26 C1.79503906 26.62648437 1.59007813 27.25296875 1.37890625 27.8984375 C1.10949219 28.71570313 0.84007813 29.53296875 0.5625 30.375 C0.29566406 31.18710938 0.02882813 31.99921875 -0.24609375 32.8359375 C-1 35 -1 35 -2 37 C-10.10402553 37.94232855 -18.33859347 34.58568332 -24.8984375 29.953125 C-25.59195313 29.30859375 -26.28546875 28.6640625 -27 28 C-27 26 -27 26 -25.3125 23.8125 C-23 22 -23 22 -20.375 22.1875 C-18 23 -18 23 -16 24 C-17.2488427 22.4166747 -17.2488427 22.4166747 -19 21 C-20.32 21 -21.64 21 -23 21 C-22.67 20.01 -22.34 19.02 -22 18 C-22.99 17.34 -23.98 16.68 -25 16 C-22.56496611 13.3222717 -19.88948089 11.57535146 -16.8125 9.6875 C-12.54888007 7.033326 -8.55477006 4.22982401 -4.65625 1.06640625 C-3 0 -3 0 0 0 Z " fill="#17588A" transform="translate(111,214)"/>
<path d="M0 0 C0.66 0 1.32 0 2 0 C2.33 1.65 2.66 3.3 3 5 C2.34 5 1.68 5 1 5 C1.06050457 31.88589213 1.13798333 58.77168886 1.23571491 85.65747261 C1.28069603 98.14078045 1.32010539 110.62405961 1.34643555 123.10742188 C1.36939682 133.98688448 1.40277396 144.86625651 1.44870156 155.74564731 C1.47265892 161.50713314 1.49137126 167.26852911 1.49761391 173.03006363 C1.50365333 178.45223246 1.52361202 183.87417133 1.55427551 189.29625511 C1.56307404 191.28683947 1.56677458 193.27745385 1.56500816 195.26805687 C1.56335797 197.98562189 1.58003307 200.70248377 1.60127258 203.41995239 C1.59642501 204.20790164 1.59157743 204.99585089 1.58658296 205.80767739 C1.66758572 212.08648123 3.58698204 215.88047307 7 221 C4.01069623 219.9692056 3.06807642 219.11262642 1.40625 216.36328125 C-0.14041377 212.66417707 -0.49809996 209.80673645 -0.6875 205.8125 C-0.72166016 205.14887451 -0.75582031 204.48524902 -0.79101562 203.80151367 C-1.00505826 199.28313909 -1.02528784 194.78059974 -0.9671936 190.25924683 C-0.99767505 187.23097913 -1.1620457 184.23192022 -1.36014748 181.21076775 C-2.34936146 165.35685295 -2.05037108 149.47354783 -1.93239641 133.59856939 C-1.90129523 129.28319319 -1.87595152 124.96778219 -1.84970093 120.65237427 C-1.80482 113.4225157 -1.75537066 106.19269949 -1.703125 98.96289062 C-1.64295522 90.62846199 -1.59021342 82.29401085 -1.54135668 73.95950878 C-1.49389739 65.89383421 -1.4411325 57.82820253 -1.38599777 49.76257706 C-1.3627584 46.34897818 -1.34136038 42.93537532 -1.32149124 39.52175522 C-1.29787467 35.50454374 -1.26958803 31.48739071 -1.23780251 27.47023582 C-1.22692898 26.00377812 -1.21761367 24.53730784 -1.21003914 23.07082939 C-1.16898834 15.32315471 -0.98217022 7.69107536 0 0 Z " fill="#A6B9C9" transform="translate(18,91)"/>
<path d="M0 0 C1.98 0 3.96 0 6 0 C9.52792991 6.80386483 12.57455088 13.72365264 15 21 C17.09993221 21.74513723 18.77431099 22 21 22 C22.62514468 20.54166642 22.62514468 20.54166642 24 19 C24 19.66 24 20.32 24 21 C24.66 21.66 25.32 22.32 26 23 C25.236875 23.433125 24.47375 23.86625 23.6875 24.3125 C19.48887693 26.93247282 19.48887693 26.93247282 17.3125 31.1875 C17.209375 31.785625 17.10625 32.38375 17 33 C17.66 33.33 18.32 33.66 19 34 C17.68 34 16.36 34 15 34 C14.731875 34.639375 14.46375 35.27875 14.1875 35.9375 C13 38 13 38 10 39 C9.91773332 35.95613276 10.02391783 33.92824652 11 31 C11.03874921 29.33378384 11.0450286 27.66605828 11 26 C10.40574219 25.96519531 9.81148437 25.93039063 9.19921875 25.89453125 C5.76095206 24.4960178 5.25034747 22.01044312 3.8125 18.6875 C3.30332031 17.53636719 2.79414062 16.38523438 2.26953125 15.19921875 C0.13438938 9.81866124 -0.09579601 5.74776068 0 0 Z " fill="#2B80BA" transform="translate(61,202)"/>
<path d="M0 0 C-0.33 0.66 -0.66 1.32 -1 2 C-1.33 1.67 -1.66 1.34 -2 1 C-3.89792981 0.89119536 -5.7999307 0.8531068 -7.70094299 0.84178162 C-8.9391983 0.8319928 -10.17745361 0.82220398 -11.45323181 0.81211853 C-12.83804283 0.80621358 -14.22285425 0.80040318 -15.60766602 0.79467773 C-17.05607384 0.78510457 -18.50447885 0.77509483 -19.95288086 0.76467896 C-23.89689271 0.7375629 -27.84091661 0.71658975 -31.78497052 0.69667697 C-35.90231875 0.67485859 -40.01962956 0.64744968 -44.13694763 0.62062073 C-51.93903149 0.57063756 -59.74113605 0.52571968 -67.54326051 0.48259836 C-76.42342961 0.43327394 -85.30356118 0.37833809 -94.18369401 0.32291877 C-112.45576118 0.20901243 -130.72786375 0.10219233 -149 0 C-148.67 -0.66 -148.34 -1.32 -148 -2 C-129.1463122 -2.2005363 -110.29253237 -2.38385711 -91.43847942 -2.54658794 C-82.68455224 -2.62254681 -73.930746 -2.70417494 -65.17700195 -2.79907227 C-57.54875998 -2.88175399 -49.92050445 -2.95387739 -42.29204398 -3.01323253 C-38.25143408 -3.04504265 -34.21103061 -3.08219997 -30.17059898 -3.13199425 C-26.36960334 -3.17867108 -22.56875033 -3.21125681 -18.76753235 -3.2329216 C-17.37065544 -3.24338803 -15.97380659 -3.25905355 -14.57705116 -3.28024101 C-12.67336352 -3.30834906 -10.76940774 -3.31612747 -8.86552429 -3.32279968 C-7.26575257 -3.33800927 -7.26575257 -3.33800927 -5.63366222 -3.35352612 C-2.66746998 -2.95536328 -1.78975741 -2.33678908 0 0 Z " fill="#95ABC0" transform="translate(198,276)"/>
<path d="M0 0 C2 2 2 2 2.24609566 4.71364021 C2.24425207 5.87694296 2.24240849 7.0402457 2.24050903 8.23880005 C2.24221788 8.88571017 2.24392673 9.53262029 2.24568737 10.19913375 C2.24899337 12.37651928 2.23796063 14.55359968 2.22705078 16.73095703 C2.22648691 18.28788241 2.22680276 19.84480833 2.22793579 21.4017334 C2.22851123 25.63706335 2.2167261 29.87228075 2.20278788 34.10758448 C2.19031228 38.53052867 2.18911253 42.95347525 2.18673706 47.37643433 C2.18051294 55.75581056 2.16408956 64.1351348 2.14403808 72.5144881 C2.12170802 82.0524352 2.11069294 91.59038473 2.10064721 101.12835145 C2.07972411 120.75226335 2.04453008 140.37612841 2 160 C2.66 160.33 3.32 160.66 4 161 C3.34 161 2.68 161 2 161 C2.01252808 161.76086411 2.02505615 162.52172821 2.03796387 163.3056488 C2.38560899 184.52550121 2.69929675 205.74567458 2.97348022 226.96660614 C2.99842151 228.87896987 3.02420666 230.79132255 3.05004883 232.70367432 C3.13031817 238.70273457 3.19730372 244.70145169 3.23217773 250.70095825 C3.24395202 252.38498411 3.2609444 254.0689825 3.28344727 255.75289917 C3.48035111 271.07593306 3.48035111 271.07593306 0 278 C-0.33 278 -0.66 278 -1 278 C-1 276.02 -1 274.04 -1 272 C-0.34 272 0.32 272 1 272 C0.505 137.36 0.505 137.36 0 0 Z " fill="#90ABBF" transform="translate(225,30)"/>
<path d="M0 0 C1.2065625 0.0309375 1.2065625 0.0309375 2.4375 0.0625 C2.77810098 5.62564939 1.73105673 9.03431793 -0.5625 14.0625 C-0.92478665 15.38825913 -1.25779932 16.72233345 -1.5625 18.0625 C-2.46427039 21.97526645 -3.89084857 25.41526051 -5.5625 29.0625 C-7.5425 28.7325 -9.5225 28.4025 -11.5625 28.0625 C-12.06465883 17.68455092 -9.6867083 9.49980856 -3.5625 1.0625 C-2.5625 0.0625 -2.5625 0.0625 0 0 Z " fill="#2D81BD" transform="translate(73.5625,150.9375)"/>
<path d="M0 0 C3.66786151 0.25008147 5.46618784 0.43128474 8.03125 3.1640625 C13.4305449 10.94161825 15.95578511 19.59082663 15 29 C13.02 29 11.04 29 9 29 C8.60167969 27.84242188 8.20335937 26.68484375 7.79296875 25.4921875 C7.25802501 23.95305112 6.72285685 22.41399273 6.1875 20.875 C5.92646484 20.11445313 5.66542969 19.35390625 5.39648438 18.5703125 C4.19545054 15.13031437 2.95820203 11.9171781 1.3125 8.65625 C-0.21440411 5.56608691 -0.24306237 3.4028732 0 0 Z " fill="#2B80BA" transform="translate(168,150)"/>
<path d="M0 0 C1.6875 0.75 1.6875 0.75 2.6875 1.75 C3.0625 4.625 3.0625 4.625 2.6875 7.75 C-0.9983569 10.49713679 -4.92849334 11.73392911 -9.3125 13 C-10.50875 13.35578125 -11.705 13.7115625 -12.9375 14.078125 C-16.2336602 14.73430504 -18.14130827 14.75265621 -21.3125 13.75 C-22.3125 12.75 -22.3125 12.75 -22.5 10.3125 C-22.3125 7.75 -22.3125 7.75 -20.3125 5.75 C-18.41296796 5.20687033 -16.49195186 4.73726739 -14.5625 4.3125 C-10.95782337 3.47169624 -8.1424663 2.66498315 -4.8125 1 C-2.3125 -0.25 -2.3125 -0.25 0 0 Z " fill="#2D81BC" transform="translate(154.3125,237.25)"/>
<path d="M0 0 C2.31 0 4.62 0 7 0 C7.6819617 9.03599252 4.88036466 18.01706697 -1 25 C-3.1875 25.9375 -3.1875 25.9375 -5 26 C-6 25 -6 25 -6.25 21.5 C-6.18886396 16.60911683 -4.74093121 12.52485275 -3 8 C-2.71382812 7.22527344 -2.42765625 6.45054687 -2.1328125 5.65234375 C-1.43339693 3.76392172 -0.71831936 1.88131262 0 0 Z " fill="#2C81BC" transform="translate(176,202)"/>
<path d="M0 0 C2.99898542 1.09054015 5.72267222 2.46853471 8.546875 3.9453125 C12.15289041 5.67159648 15.9326655 6.83359224 19.75 8 C19.42 10.31 19.09 12.62 18.75 15 C10.64597447 15.94232855 2.41140653 12.58568332 -4.1484375 7.953125 C-4.84195313 7.30859375 -5.53546875 6.6640625 -6.25 6 C-6.25 4 -6.25 4 -4.5625 1.8125 C-2.25 0 -2.25 0 0 0 Z " fill="#2E82BE" transform="translate(90.25,236)"/>
<path d="M0 0 C9.98567858 -0.84624395 18.61494507 2.70499309 27 8 C23.375 12.875 23.375 12.875 20 14 C17.80078125 13.328125 17.80078125 13.328125 15.3125 12.25 C12.06072762 10.84550095 8.89774986 9.67514575 5.5 8.6875 C2 7 2 7 0.5 3.3125 C0.335 2.219375 0.17 1.12625 0 0 Z " fill="#2D82BD" transform="translate(132,129)"/>
<path d="M0 0 C0 2.64 0 5.28 0 8 C-0.763125 8.2475 -1.52625 8.495 -2.3125 8.75 C-6.4030496 10.13662698 -10.45653876 11.6113178 -14.51171875 13.09765625 C-16.33193841 13.75773591 -18.16315099 14.387717 -20 15 C-22.0625 12.6875 -22.0625 12.6875 -24 10 C-23 7 -23 7 -20.99609375 5.68359375 C-14.18201467 2.36498119 -7.75958491 -0.48497406 0 0 Z " fill="#2D82BD" transform="translate(109,129)"/>
<path d="M0 0 C-1.50684968 3.53239023 -3.55366612 5.7962166 -6.26611328 8.49316406 C-7.58725632 9.81408051 -7.58725632 9.81408051 -8.93508911 11.16168213 C-9.89672351 12.11310431 -10.8584672 13.06441603 -11.8203125 14.015625 C-12.80438107 14.99596129 -13.78800742 15.97674168 -14.77120972 16.95794678 C-17.35442714 19.53354467 -19.94359512 22.10307857 -22.53405762 24.67138672 C-25.17867606 27.29551053 -27.81766495 29.92528284 -30.45703125 32.5546875 C-35.63197369 37.70927218 -40.81615711 42.85430477 -46 48 C-26.695 48.495 -26.695 48.495 -7 49 C-7 49.33 -7 49.66 -7 50 C-21.52 50 -36.04 50 -51 50 C-47.49559065 45.91152243 -44.1680815 42.04209231 -40.40332031 38.25805664 C-39.12234467 36.96751122 -39.12234467 36.96751122 -37.81549072 35.65089417 C-36.91216003 34.74645065 -36.00882935 33.84200714 -35.078125 32.91015625 C-34.12734958 31.95616152 -33.17664691 31.00209429 -32.22601318 30.04795837 C-30.24765236 28.06365161 -28.26727849 26.08137957 -26.28564453 24.1003418 C-23.7428552 21.55765496 -21.20706627 19.00810461 -18.67290115 16.45682621 C-16.7186855 14.49152825 -14.75997862 12.53075535 -12.79994965 10.57125664 C-11.40648844 9.17603967 -10.01757703 7.77628344 -8.62872314 6.3764801 C-7.78734802 5.53818161 -6.9459729 4.69988312 -6.07910156 3.83618164 C-5.33774963 3.09340469 -4.59639771 2.35062775 -3.83258057 1.58534241 C-2 0 -2 0 0 0 Z " fill="#3489C5" transform="translate(84,46)"/>
<path d="M0 0 C0.04080783 1.99958364 0.04254356 4.00045254 0 6 C-0.66 6.33 -1.32 6.66 -2 7 C-2.495 4.525 -2.495 4.525 -3 2 C-13.38777621 1.17602933 -23.70122769 0.86279163 -34.12109375 0.90234375 C-35.60181123 0.90421565 -37.08252935 0.90563589 -38.56324768 0.90663147 C-42.40505778 0.91039598 -46.24682828 0.92017212 -50.08862305 0.93133545 C-54.0310818 0.9416823 -57.97354713 0.94615712 -61.91601562 0.95117188 C-69.61069487 0.96180177 -77.30534183 0.97880233 -85 1 C-85 3.31 -85 5.62 -85 8 C-85.66 7.67 -86.32 7.34 -87 7 C-86.74438677 4.6568787 -86.40729228 2.32156597 -86 0 C-83.04804859 -1.4759757 -80.03886052 -1.18745342 -76.79980469 -1.22119141 C-76.05812546 -1.2326973 -75.31644623 -1.24420319 -74.55229187 -1.25605774 C-72.09219538 -1.29283625 -69.63207315 -1.32243568 -67.171875 -1.3515625 C-65.46274453 -1.37467879 -63.75361775 -1.39806913 -62.04449463 -1.42172241 C-58.45661676 -1.47022583 -54.86871585 -1.5151417 -51.28076172 -1.55761719 C-46.68966821 -1.61228876 -42.0987575 -1.67615623 -37.50782394 -1.74279213 C-33.97506247 -1.79298066 -30.44224962 -1.83805864 -26.90940094 -1.88163376 C-25.21735764 -1.90315151 -23.52533414 -1.92629124 -21.83333588 -1.9510994 C-19.46151194 -1.98514347 -17.08970416 -2.01224878 -14.71777344 -2.03759766 C-14.02248032 -2.04897263 -13.32718719 -2.0603476 -12.61082458 -2.07206726 C-2.16155351 -2.16155351 -2.16155351 -2.16155351 0 0 Z " fill="#ABBFCD" transform="translate(199,58)"/>
<path d="M0 0 C0.58959961 1.83886719 0.58959961 1.83886719 1 4 C-0.43359375 6.578125 -0.43359375 6.578125 -2.4375 9.25 C-3.09621094 10.14203125 -3.75492188 11.0340625 -4.43359375 11.953125 C-4.95050781 12.62859375 -5.46742188 13.3040625 -6 14 C-4.68 14.66 -3.36 15.32 -2 16 C-2 16.66 -2 17.32 -2 18 C-1.34 18.33 -0.68 18.66 0 19 C-3.96 18.67 -7.92 18.34 -12 18 C-10.60820733 15.21641466 -9.39906839 13.0140947 -7.6171875 10.546875 C-7.17246094 9.928125 -6.72773438 9.309375 -6.26953125 8.671875 C-5.80933594 8.03765625 -5.34914062 7.4034375 -4.875 6.75 C-4.17310547 5.77546875 -4.17310547 5.77546875 -3.45703125 4.78125 C-2.30725718 3.18564517 -1.15397434 1.59256975 0 0 Z " fill="#6889A9" transform="translate(156,162)"/>
<path d="M0 0 C1.85776765 3.13498292 2.20140476 5.37471432 2 9 C2.99 8.67 3.98 8.34 5 8 C5 8.99 5 9.98 5 11 C5.99 8.03 6.98 5.06 8 2 C8.89377528 5.57510111 9.0258444 7.24917563 8.5625 10.75 C8.46066406 11.54921875 8.35882813 12.3484375 8.25390625 13.171875 C8.17011719 13.77515625 8.08632812 14.3784375 8 15 C7.34 15 6.68 15 6 15 C5.67 16.32 5.34 17.64 5 19 C4.01 18.67 3.02 18.34 2 18 C1.86722656 17.30132812 1.73445313 16.60265625 1.59765625 15.8828125 C1.42105469 14.97273438 1.24445313 14.06265625 1.0625 13.125 C0.88847656 12.22007812 0.71445313 11.31515625 0.53515625 10.3828125 C0.10036299 8.00043683 0.10036299 8.00043683 -1 6 C-0.71887936 3.99199544 -0.38932033 1.98985949 0 0 Z M4 13 C5 16 5 16 5 16 Z " fill="#7C9BB7" transform="translate(117,247)"/>
<path d="M0 0 C0.99 1.32 1.98 2.64 3 4 C1.8553125 4.6496875 1.8553125 4.6496875 0.6875 5.3125 C-3.51112307 7.93247282 -3.51112307 7.93247282 -5.6875 12.1875 C-5.790625 12.785625 -5.89375 13.38375 -6 14 C-5.34 14.33 -4.68 14.66 -4 15 C-5.32 15 -6.64 15 -8 15 C-8.33 14.34 -8.66 13.68 -9 13 C-8.0625 10.375 -8.0625 10.375 -7 8 C-7.99 7.67 -8.98 7.34 -10 7 C-9.34 5.35 -8.68 3.7 -8 2 C-7.38125 2.165 -6.7625 2.33 -6.125 2.5 C-4.03936614 3.07634644 -4.03936614 3.07634644 -2 3 C-1.34 2.01 -0.68 1.02 0 0 Z " fill="#5F8BAE" transform="translate(84,221)"/>
<path d="M0 0 C2 2 2 2 2.13525391 3.87939453 C2.08288574 4.62302246 2.03051758 5.36665039 1.9765625 6.1328125 C1.89921875 7.34130859 1.89921875 7.34130859 1.8203125 8.57421875 C1.75585938 9.41597656 1.69140625 10.25773438 1.625 11.125 C1.56828125 11.97449219 1.5115625 12.82398438 1.453125 13.69921875 C1.31149023 15.8001345 1.15695674 17.90017334 1 20 C1.99 20.33 2.98 20.66 4 21 C4.6875 23.0625 4.6875 23.0625 5 25 C2.75 24.9375 2.75 24.9375 0 24 C-1.67849824 21.7691525 -2.75999263 19.52594094 -4 17 C-3.01 15.515 -3.01 15.515 -2 14 C-1.33386665 11.72461677 -1.33386665 11.72461677 -0.875 9.3125 C-0.70742187 8.50425781 -0.53984375 7.69601563 -0.3671875 6.86328125 C-0.24601562 6.24839844 -0.12484375 5.63351563 0 5 C-0.66 4.67 -1.32 4.34 -2 4 C-1.34 4 -0.68 4 0 4 C0 2.68 0 1.36 0 0 Z M-2 16 C-1 18 -1 18 -1 18 Z " fill="#7791AD" transform="translate(108,176)"/>
<path d="M0 0 C-0.556875 0.226875 -1.11375 0.45375 -1.6875 0.6875 C-5.30573223 2.74109126 -7.87292777 5.78944094 -10.6875 8.8125 C-12 10 -12 10 -14 10 C-14.33 10.99 -14.66 11.98 -15 13 C-17.92079805 15.07530387 -19.37546731 16 -23 16 C-20.4290186 13.34191968 -17.84124519 10.70081798 -15.25 8.0625 C-14.15558594 6.93038086 -14.15558594 6.93038086 -13.0390625 5.77539062 C-11.97558594 4.69741211 -11.97558594 4.69741211 -10.890625 3.59765625 C-10.24125977 2.93258057 -9.59189453 2.26750488 -8.92285156 1.58227539 C-5.71316856 -1.05890738 -3.92799311 -1.30933104 0 0 Z " fill="#37628B" transform="translate(92,23)"/>
<path d="M0 0 C0.80824219 0.11085937 1.61648437 0.22171875 2.44921875 0.3359375 C3.37154297 0.47902344 3.37154297 0.47902344 4.3125 0.625 C2.9925 0.955 1.6725 1.285 0.3125 1.625 C0.3125 2.285 0.3125 2.945 0.3125 3.625 C-10.13628049 5.77621951 -10.13628049 5.77621951 -14.9375 5.625 C-19.07551715 5.625 -21.82831873 6.20734157 -25.6875 7.625 C-26.0175 8.285 -26.3475 8.945 -26.6875 9.625 C-27.3475 8.305 -28.0075 6.985 -28.6875 5.625 C-27.0375 5.625 -25.3875 5.625 -23.6875 5.625 C-23.3575 4.965 -23.0275 4.305 -22.6875 3.625 C-20.2126257 3.19972327 -17.80570688 2.87524753 -15.3125 2.625 C-9.76933876 2.06234829 -5.36126894 -0.7769955 0 0 Z " fill="#9CB3C7" transform="translate(171.6875,194.375)"/>
<path d="M0 0 C1 1 1 1 1.0625 4.0625 C1.041875 5.031875 1.02125 6.00125 1 7 C0.01 7.495 0.01 7.495 -1 8 C-1.33 6.35 -1.66 4.7 -2 3 C-10.01133083 2.40891367 -17.96229722 1.85898767 -26 2 C-26.33 1.34 -26.66 0.68 -27 0 C-23.62554272 -0.19825948 -20.25043278 -0.38167324 -16.875 -0.5625 C-15.44800781 -0.64661133 -15.44800781 -0.64661133 -13.9921875 -0.73242188 C-9.18468601 -0.98281258 -4.71946858 -1.16826189 0 0 Z " fill="#A4B9C9" transform="translate(198,57)"/>
<path d="M0 0 C2.875 -0.1875 2.875 -0.1875 6 0 C8 3 8 3 7.625 5.1875 C7.41875 5.785625 7.2125 6.38375 7 7 C6.731875 6.360625 6.46375 5.72125 6.1875 5.0625 C5.11332248 2.66868314 5.11332248 2.66868314 2 2 C3.23416987 8.82423338 4.8915995 15.39367844 7 22 C2.37378642 18.01005648 0.35125057 11.45846713 -0.25390625 5.5 C-0.25062896 3.66471705 -0.13811934 1.83008123 0 0 Z " fill="#3188C3" transform="translate(61,202)"/>
<path d="M0 0 C4.8 2.46153846 4.8 2.46153846 5.8125 5.1875 C5.874375 5.785625 5.93625 6.38375 6 7 C5.34 6.67 4.68 6.34 4 6 C3.46375 6.28875 2.9275 6.5775 2.375 6.875 C-2.31831932 9.09815126 -7.86424331 9.1604924 -13 9 C-12.38125 8.71125 -11.7625 8.4225 -11.125 8.125 C-8.86674235 7.06279958 -8.86674235 7.06279958 -7 5 C-4.67724823 4.59952556 -2.34260643 4.2602896 0 4 C0 2.68 0 1.36 0 0 Z " fill="#98AFC4" transform="translate(97,173)"/>
<path d="M0 0 C0.99 0.33 1.98 0.66 3 1 C3.33 3.97 3.66 6.94 4 10 C7.465 9.505 7.465 9.505 11 9 C9.35 10.65 7.7 12.3 6 14 C6.33 14.66 6.66 15.32 7 16 C6.01 16.33 5.02 16.66 4 17 C3.32635339 14.91891315 2.66133202 12.8350329 2 10.75 C1.62875 9.58984375 1.2575 8.4296875 0.875 7.234375 C0 4 0 4 0 0 Z " fill="#7D94B0" transform="translate(130,151)"/>
<path d="M0 0 C2.375 -0.1875 2.375 -0.1875 5 0 C5.66 0.99 6.32 1.98 7 3 C2.92194992 4.15416512 -1.13298298 4.39484484 -5.34375 4.71875 C-7.9238388 4.92812595 -7.9238388 4.92812595 -10.078125 5.52734375 C-12.20335722 6.05001265 -14.06551863 6.09890802 -16.25 6.0625 C-18.10625 6.0315625 -18.10625 6.0315625 -20 6 C-20 5.67 -20 5.34 -20 5 C-18.02 5 -16.04 5 -14 5 C-13.67 4.34 -13.34 3.68 -13 3 C-10.05859375 2.3671875 -10.05859375 2.3671875 -6.4375 1.875 C-5.23996094 1.70742187 -4.04242188 1.53984375 -2.80859375 1.3671875 C-1.41833984 1.18542969 -1.41833984 1.18542969 0 1 C0 0.67 0 0.34 0 0 Z " fill="#A4BBCD" transform="translate(196,189)"/>
<path d="M0 0 C2 2 2 2 2 5 C0 7.1875 0 7.1875 -2 9 C-2.99 8.67 -3.98 8.34 -5 8 C-6.1875 5.4375 -6.1875 5.4375 -7 3 C-2.25 0 -2.25 0 0 0 Z " fill="#ECF1F5" transform="translate(165,144)"/>
<path d="M0 0 C2.475 0.99 2.475 0.99 5 2 C4.32784675 5.8088684 3.46704554 9.41388869 2 13 C1.01 13.33 0.02 13.66 -1 14 C-1.08226668 10.95613276 -0.97608217 8.92824652 0 6 C0.03920815 4.00038436 0.04443347 1.99950636 0 0 Z " fill="#2F6592" transform="translate(72,227)"/>
<path d="M0 0 C0.95827504 3.04498611 0.99431517 5.02273931 0.22265625 8.109375 C-0.05288086 9.24052734 -0.05288086 9.24052734 -0.33398438 10.39453125 C-0.63272461 11.56048828 -0.63272461 11.56048828 -0.9375 12.75 C-1.23043945 13.93916016 -1.23043945 13.93916016 -1.52929688 15.15234375 C-2.01124079 17.10362885 -2.50452088 19.05210783 -3 21 C-3.33 21 -3.66 21 -4 21 C-4 17.37 -4 13.74 -4 10 C-3.34 10 -2.68 10 -2 10 C-2.185625 9.071875 -2.37125 8.14375 -2.5625 7.1875 C-3 4 -3 4 -2 1 C-1.34 0.67 -0.68 0.34 0 0 Z " fill="#7293B0" transform="translate(116,134)"/>
<path d="M0 0 C1.7734375 0.1640625 1.7734375 0.1640625 4 1 C5.8515625 3.3984375 5.8515625 3.3984375 7.625 6.375 C8.21539062 7.35210937 8.80578125 8.32921875 9.4140625 9.3359375 C9.93742188 10.21507812 10.46078125 11.09421875 11 12 C11.99 13.485 11.99 13.485 13 15 C12.01 15 11.02 15 10 15 C8.13344263 12.72191818 6.46451918 10.48750391 4.8125 8.0625 C4.34908203 7.40314453 3.88566406 6.74378906 3.40820312 6.06445312 C0 1.17049429 0 1.17049429 0 0 Z " fill="#587B9E" transform="translate(153,214)"/>
<path d="M0 0 C0.680625 0.165 1.36125 0.33 2.0625 0.5 C5.09913771 1.10995507 5.09913771 1.10995507 8.625 0.9375 C12 1 12 1 15 3 C7.61538462 5.21538462 7.61538462 5.21538462 4.5 4.125 C4.005 3.75375 3.51 3.3825 3 3 C3 3.66 3 4.32 3 5 C2.01 5 1.02 5 0 5 C-0.33 4.01 -0.66 3.02 -1 2 C-0.67 1.34 -0.34 0.68 0 0 Z " fill="#A1B5C9" transform="translate(113,201)"/>
<path d="M0 0 C2.46800047 1.15173355 4.04783565 2.04783565 6 4 C5.67 4.66 5.34 5.32 5 6 C4.34 6 3.68 6 3 6 C3.33 7.98 3.66 9.96 4 12 C3.34 12 2.68 12 2 12 C-2.09030544 6.85790173 -2.09030544 6.85790173 -1.75 3.625 C-1.5025 3.08875 -1.255 2.5525 -1 2 C-0.34 2.66 0.32 3.32 1 4 C0.67 2.68 0.34 1.36 0 0 Z " fill="#436A93" transform="translate(78,142)"/>
<path d="M0 0 C2.97 0.33 5.94 0.66 9 1 C7.95206337 5.19174654 7.08236365 6.21592961 4 9 C3.71125 7.88625 3.4225 6.7725 3.125 5.625 C2.30758671 1.99708908 2.30758671 1.99708908 0 0 Z " fill="#7697B3" transform="translate(90,199)"/>
<path d="M0 0 C-0.99 0.66 -1.98 1.32 -3 2 C2.94 3.485 2.94 3.485 9 5 C9 5.33 9 5.66 9 6 C6.69 6.33 4.38 6.66 2 7 C2 6.34 2 5.68 2 5 C-2.29 4.34 -6.58 3.68 -11 3 C-7.11595442 0.41063628 -4.5725325 -0.12358196 0 0 Z " fill="#B0C3D4" transform="translate(53,188)"/>
<path d="M0 0 C2.31 0.33 4.62 0.66 7 1 C0.93775593 4.32445643 -6.13938387 5.36108506 -13 5 C-13 4.67 -13 4.34 -13 4 C-3.60674157 0.79775281 -3.60674157 0.79775281 0 2 C0 1.34 0 0.68 0 0 Z " fill="#7296B4" transform="translate(75,181)"/>
<path d="M0 0 C0.99 0.33 1.98 0.66 3 1 C3 5.29 3 9.58 3 14 C2.34 13.34 1.68 12.68 1 12 C1 11.01 1 10.02 1 9 C0.01 9.495 0.01 9.495 -1 10 C-1.125 3.375 -1.125 3.375 0 0 Z " fill="#779BB7" transform="translate(121,111)"/>
<path d="M0 0 C0.71484375 1.703125 0.71484375 1.703125 1 4 C-0.43359375 6.359375 -0.43359375 6.359375 -2.4375 8.75 C-3.42556641 9.94882813 -3.42556641 9.94882813 -4.43359375 11.171875 C-5.20896484 12.07679688 -5.20896484 12.07679688 -6 13 C-6.71484375 11.296875 -6.71484375 11.296875 -7 9 C-5.56640625 6.640625 -5.56640625 6.640625 -3.5625 4.25 C-2.57443359 3.05117187 -2.57443359 3.05117187 -1.56640625 1.828125 C-1.04949219 1.22484375 -0.53257812 0.6215625 0 0 Z " fill="#58789B" transform="translate(156,162)"/>
<path d="M0 0 C0.33 0.99 0.66 1.98 1 3 C-2.14594657 7.671254 -4.3616163 9.68874798 -10 11 C-6.79239749 7.19364503 -3.59253891 3.45436433 0 0 Z " fill="#4C7295" transform="translate(38,71)"/>
<path d="M0 0 C0.66 0 1.32 0 2 0 C2.103125 0.61875 2.20625 1.2375 2.3125 1.875 C2.87525373 4.36526484 2.87525373 4.36526484 6 6 C6.6875 8.125 6.6875 8.125 7 10 C4.75 9.9375 4.75 9.9375 2 9 C0.32150176 6.7691525 -0.75999263 4.52594094 -2 2 C-1.34 1.34 -0.68 0.68 0 0 Z M0 1 C1 3 1 3 1 3 Z " fill="#C0CEDB" transform="translate(106,191)"/>
<path d="M0 0 C0.33 0 0.66 0 1 0 C1.17942163 3.94727588 1.09350689 6.5980513 -1 10 C-1.66 10 -2.32 10 -3 10 C-3 9.34 -3 8.68 -3 8 C-4.32 7.34 -5.64 6.68 -7 6 C-7 5.67 -7 5.34 -7 5 C-3.535 4.505 -3.535 4.505 0 4 C0 2.68 0 1.36 0 0 Z " fill="#89A1B9" transform="translate(111,155)"/>
<path d="M0 0 C3.465 1.98 3.465 1.98 7 4 C6.67 3.01 6.34 2.02 6 1 C6.66 1 7.32 1 8 1 C8.99 3.31 9.98 5.62 11 8 C7.5625 7.1875 7.5625 7.1875 4 6 C3.67 5.01 3.34 4.02 3 3 C2.01 3 1.02 3 0 3 C0 2.01 0 1.02 0 0 Z " fill="#8DA8BF" transform="translate(162,234)"/>
<path d="M0 0 C0 3.68553144 -0.8522582 5.03759752 -3 8 C-5.96240248 10.1477418 -7.31446856 11 -11 11 C-7.37 7.37 -3.74 3.74 0 0 Z " fill="#7C96AF" transform="translate(80,28)"/>
<path d="M0 0 C0.89377528 3.57510111 1.0258444 5.24917563 0.5625 8.75 C0.46066406 9.54921875 0.35882813 10.3484375 0.25390625 11.171875 C0.12822266 12.07679688 0.12822266 12.07679688 0 13 C-0.66 13 -1.32 13 -2 13 C-2 13.66 -2 14.32 -2 15 C-2.66 14.67 -3.32 14.34 -4 14 C-2.68 9.38 -1.36 4.76 0 0 Z " fill="#9CB3C8" transform="translate(125,249)"/>
<path d="M0 0 C0 1.65 0 3.3 0 5 C-1.65 5.66 -3.3 6.32 -5 7 C-5 5.02 -5 3.04 -5 1 C-2 0 -2 0 0 0 Z " fill="#3A6D96" transform="translate(133,196)"/>
<path d="M0 0 C2.75 0.25 2.75 0.25 5 1 C0.375 5.875 0.375 5.875 -3 7 C-3.33 6.01 -3.66 5.02 -4 4 C-2.3125 1.9375 -2.3125 1.9375 0 0 Z " fill="#2B7CB5" transform="translate(88,236)"/>
<path d="M0 0 C1.79275866 3.11910856 2.34290718 5.67682428 2.625 9.25 C2.69976562 10.14203125 2.77453125 11.0340625 2.8515625 11.953125 C2.92503906 12.96632812 2.92503906 12.96632812 3 14 C-0.12220591 11.163157 -0.66020941 9.2473824 -1 5 C-0.5625 2.125 -0.5625 2.125 0 0 Z " fill="#7F9CB4" transform="translate(113,229)"/>
<path d="M0 0 C2.30143236 3.45214853 2.13833854 4.23479324 1.625 8.1875 C1.51414062 9.08855469 1.40328125 9.98960937 1.2890625 10.91796875 C1.19367188 11.60503906 1.09828125 12.29210937 1 13 C0.67 13 0.34 13 0 13 C-0.66 9.04 -1.32 5.08 -2 1 C-1.34 0.67 -0.68 0.34 0 0 Z " fill="#7092B0" transform="translate(126,125)"/>
<path d="M0 0 C0.33 0 0.66 0 1 0 C0.67 3.3 0.34 6.6 0 10 C-1.32 10.33 -2.64 10.66 -4 11 C-3.34 8.69 -2.68 6.38 -2 4 C-1.34 4 -0.68 4 0 4 C0 2.68 0 1.36 0 0 Z " fill="#0D477C" transform="translate(111,149)"/>
<path d="M0 0 C1.32 0.33 2.64 0.66 4 1 C1.36 2.98 -1.28 4.96 -4 7 C-4.66 6.67 -5.32 6.34 -6 6 C-4 4 -2 2 0 0 Z " fill="#6584A6" transform="translate(148,152)"/>
<path d="M0 0 C5.875 0.875 5.875 0.875 7 2 C7.04080783 3.99958364 7.04254356 6.00045254 7 8 C6.01 8.495 6.01 8.495 5 9 C4.731875 7.88625 4.46375 6.7725 4.1875 5.625 C3.34190981 1.78159049 3.34190981 1.78159049 0 0 Z " fill="#6787A5" transform="translate(192,56)"/>
<path d="M0 0 C2.1991413 4.39828259 2.51855059 7.18550592 3 12 C2.01 11.67 1.02 11.34 0 11 C0 7.37 0 3.74 0 0 Z " fill="#0D5388" transform="translate(112,236)"/>
<path d="M0 0 C1.231394 3.69418201 0.64432764 6.2056261 0 10 C-1.32 9.34 -2.64 8.68 -4 8 C-2.25 2.25 -2.25 2.25 0 0 Z " fill="#146096" transform="translate(170,216)"/>
<path d="M0 0 C2.12438339 -0.08078641 4.2496323 -0.13909141 6.375 -0.1875 C7.55835938 -0.22230469 8.74171875 -0.25710937 9.9609375 -0.29296875 C11.46527344 -0.14794922 11.46527344 -0.14794922 13 0 C13.66 0.99 14.32 1.98 15 3 C13.24929483 2.88529863 11.49942464 2.75780972 9.75 2.625 C8.77546875 2.55539063 7.8009375 2.48578125 6.796875 2.4140625 C4.10366811 2.01534751 2.33036721 1.36492937 0 0 Z " fill="#A0B7CB" transform="translate(181,186)"/>
<path d="M0 0 C0.66 0 1.32 0 2 0 C2 0.66 2 1.32 2 2 C2.99 2 3.98 2 5 2 C6.0625 3.8125 6.0625 3.8125 7 6 C6.67 6.99 6.34 7.98 6 9 C4.99712471 7.68969568 3.99777175 6.37669473 3 5.0625 C2.443125 4.33160156 1.88625 3.60070312 1.3125 2.84765625 C0 1 0 1 0 0 Z " fill="#728EAB" transform="translate(146,204)"/>
<path d="M0 0 C0.66 0.33 1.32 0.66 2 1 C-0.75 5.875 -0.75 5.875 -3 7 C-4 4 -4 4 -3 1 C-2.01 0.67 -1.02 0.34 0 0 Z " fill="#1F5180" transform="translate(113,177)"/>
<path d="M0 0 C0.99 0.33 1.98 0.66 3 1 C3.84098656 5.01804691 4.05404945 8.01803543 3 12 C0.60926555 8.17482487 0.44033448 4.40334476 0 0 Z " fill="#809EB9" transform="translate(130,151)"/>
<path d="M0 0 C1.134375 0.020625 2.26875 0.04125 3.4375 0.0625 C3.4375 0.7225 3.4375 1.3825 3.4375 2.0625 C2.4475 2.0625 1.4575 2.0625 0.4375 2.0625 C0.7675 3.3825 1.0975 4.7025 1.4375 6.0625 C0.7775 5.7325 0.1175 5.4025 -0.5625 5.0625 C-0.5625 4.0725 -0.5625 3.0825 -0.5625 2.0625 C-1.8825 1.7325 -3.2025 1.4025 -4.5625 1.0625 C-3.5625 0.0625 -3.5625 0.0625 0 0 Z " fill="#3C6A94" transform="translate(63.5625,193.9375)"/>
<path d="M0 0 C2.46800047 1.15173355 4.04783565 2.04783565 6 4 C5.67 4.66 5.34 5.32 5 6 C4.34 6 3.68 6 3 6 C2.67 6.99 2.34 7.98 2 9 C1.855625 7.88625 1.71125 6.7725 1.5625 5.625 C1.21627965 2.17857953 1.21627965 2.17857953 0 0 Z " fill="#E3EBF1" transform="translate(78,142)"/>
<path d="M0 0 C3.79588866 0.54226981 5.47211993 2.20127563 8 5 C7.67 5.66 7.34 6.32 7 7 C6.34 6.67 5.68 6.34 5 6 C5 5.01 5 4.02 5 3 C3.35 2.67 1.7 2.34 0 2 C0 1.34 0 0.68 0 0 Z " fill="#6984A1" transform="translate(217,23)"/>
<path d="M0 0 C0.66 0.33 1.32 0.66 2 1 C2 1.66 2 2.32 2 3 C-1 5 -1 5 -3.1875 4.625 C-3.785625 4.41875 -4.38375 4.2125 -5 4 C-3.36587557 2.29159719 -2.13093906 1.06546953 0 0 Z " fill="#7996B2" transform="translate(91,226)"/>
<path d="M0 0 C2.375 -0.1875 2.375 -0.1875 5 0 C5.66 0.99 6.32 1.98 7 3 C4.39417629 3.93065133 3.35801776 4.14917407 0.75 3.0625 C0.1725 2.711875 -0.405 2.36125 -1 2 C-0.67 1.34 -0.34 0.68 0 0 Z " fill="#82A0B8" transform="translate(196,189)"/>
<path d="M0 0 C0.66 0 1.32 0 2 0 C1.1875 3.4375 1.1875 3.4375 0 7 C-0.99 7.33 -1.98 7.66 -3 8 C-1.125 1.125 -1.125 1.125 0 0 Z " fill="#9BB2C6" transform="translate(171,138)"/>
<path d="M0 0 C2.64 1.65 5.28 3.3 8 5 C7.01 5.495 7.01 5.495 6 6 C3.96855359 5.06553465 1.96466413 4.06775224 0 3 C0 2.01 0 1.02 0 0 Z " fill="#819AB5" transform="translate(146,222)"/>
<path d="M0 0 C0.99 1.32 1.98 2.64 3 4 C0.525 5.485 0.525 5.485 -2 7 C-2 3 -2 3 0 0 Z " fill="#ECF2F5" transform="translate(84,221)"/>
<path d="M0 0 C0.33 0.99 0.66 1.98 1 3 C0.34 3.66 -0.32 4.32 -1 5 C-3 5 -5 5 -7 5 C-4.69 3.35 -2.38 1.7 0 0 Z " fill="#083E73" transform="translate(108,216)"/>
<path d="M0 0 C-2.71182212 2.60334924 -3.89133813 2.99456691 -7.75 3.1875 C-8.8225 3.125625 -9.895 3.06375 -11 3 C-7.11595442 0.41063628 -4.5725325 -0.12358196 0 0 Z " fill="#DBE6EE" transform="translate(53,188)"/>
<path d="M0 0 C0.66 0.33 1.32 0.66 2 1 C2 1.66 2 2.32 2 3 C2.99 3 3.98 3 5 3 C4.34 4.32 3.68 5.64 3 7 C1.04783565 5.04783565 0.15173355 3.46800047 -1 1 C-0.67 0.67 -0.34 0.34 0 0 Z " fill="#40759C" transform="translate(153,144)"/>
<path d="M0 0 C1.0625 1.875 1.0625 1.875 2 4 C1.67 4.66 1.34 5.32 1 6 C0.01 5.01 -0.98 4.02 -2 3 C-1.34 2.01 -0.68 1.02 0 0 Z " fill="#FEFEFE" transform="translate(130,216)"/>
<path d="M0 0 C2.31 0.33 4.62 0.66 7 1 C5.1875 1.625 5.1875 1.625 3 2 C2.01 1.34 1.02 0.68 0 0 Z " fill="#FEFFFF" transform="translate(152,182)"/>
<path d="M0 0 C1.485 0.99 1.485 0.99 3 2 C2.67 2.66 2.34 3.32 2 4 C1.34 3.67 0.68 3.34 0 3 C0 2.01 0 1.02 0 0 Z " fill="#FEFEFE" transform="translate(119,248)"/>
<path d="M0 0 C0.66 0.66 1.32 1.32 2 2 C1.67 2.66 1.34 3.32 1 4 C0.34 3.67 -0.32 3.34 -1 3 C-0.67 2.01 -0.34 1.02 0 0 Z " fill="#FDFEFE" transform="translate(105,163)"/>
<path d="M0 0 C0.66 0.33 1.32 0.66 2 1 C1.67 1.99 1.34 2.98 1 4 C1 3.34 1 2.68 1 2 C0.34 1.67 -0.32 1.34 -1 1 C-0.67 0.67 -0.34 0.34 0 0 Z " fill="#FEFEFE" transform="translate(121,124)"/>
<path d="M0 0 C0.99 0.33 1.98 0.66 3 1 C2.01 1.33 1.02 1.66 0 2 C0 1.34 0 0.68 0 0 Z " fill="#FEFEFE" transform="translate(160,229)"/>
<path d="M0 0 C0.66 0.33 1.32 0.66 2 1 C1.67 1.66 1.34 2.32 1 3 C0.34 2.34 -0.32 1.68 -1 1 C-0.67 0.67 -0.34 0.34 0 0 Z " fill="#FEFEFE" transform="translate(154,218)"/>
<path d="M0 0 C0.66 0.66 1.32 1.32 2 2 C1.01 2 0.02 2 -1 2 C-0.67 1.34 -0.34 0.68 0 0 Z " fill="#FEFEFE" transform="translate(100,216)"/>
<path d="M0 0 C1.485 0.99 1.485 0.99 3 2 C2.01 2.33 1.02 2.66 0 3 C0 2.01 0 1.02 0 0 Z " fill="#FEFEFE" transform="translate(128,162)"/>
<path d="M0 0 C0.66 0.33 1.32 0.66 2 1 C1.01 1 0.02 1 -1 1 C-0.67 0.67 -0.34 0.34 0 0 Z " fill="#FEFEFE" transform="translate(88,224)"/>
<path d="M0 0 C0.66 0 1.32 0 2 0 C2 0.66 2 1.32 2 2 C1.34 2 0.68 2 0 2 C0 1.34 0 0.68 0 0 Z " fill="#FDFEFE" transform="translate(96,217)"/>
<path d="M0 0 C0.99 1.485 0.99 1.485 2 3 C1.34 3 0.68 3 0 3 C0 2.01 0 1.02 0 0 Z " fill="#FEFFFF" transform="translate(80,193)"/>
<path d="M0 0 C0.99 0.33 1.98 0.66 3 1 C2.01 1 1.02 1 0 1 C0 0.67 0 0.34 0 0 Z " fill="#FEFEFE" transform="translate(69,192)"/>
<path d="M0 0 C1 4 1 4 1 4 Z " fill="#FEFEFE" transform="translate(104,186)"/>
<path d="M0 0 C0.99 0.33 1.98 0.66 3 1 C2.01 1 1.02 1 0 1 C0 0.67 0 0.34 0 0 Z " fill="#FEFFFF" transform="translate(92,159)"/>
<path d="M0 0 C0.66 0.66 1.32 1.32 2 2 C1.01 2.495 1.01 2.495 0 3 C0 2.01 0 1.02 0 0 Z " fill="#FFFFFF" transform="translate(120,137)"/>
<path d="M0 0 C0.99 0.33 1.98 0.66 3 1 C2.01 1 1.02 1 0 1 C0 0.67 0 0.34 0 0 Z " fill="#FDFEFE" transform="translate(120,131)"/>
<path d="M0 0 C0.66 0.66 1.32 1.32 2 2 C1.34 2 0.68 2 0 2 C0 1.34 0 0.68 0 0 Z " fill="#FEFEFF" transform="translate(120,252)"/>
<path d="M0 0 C0.66 0.66 1.32 1.32 2 2 C1.34 2 0.68 2 0 2 C0 1.34 0 0.68 0 0 Z " fill="#FEFEFE" transform="translate(80,230)"/>
<path d="M0 0 C0.66 0 1.32 0 2 0 C1.67 0.66 1.34 1.32 1 2 C0.67 1.34 0.34 0.68 0 0 Z " fill="#FEFEFE" transform="translate(152,216)"/>
<path d="M0 0 C3 1 3 1 3 1 Z " fill="#FEFFFF" transform="translate(93,213)"/>
<path d="M0 0 C3 1 3 1 3 1 Z " fill="#FEFFFF" transform="translate(121,206)"/>
<path d="M0 0 C3 1 3 1 3 1 Z " fill="#FFFFFF" transform="translate(160,195)"/>
<path d="M0 0 C0.66 0.66 1.32 1.32 2 2 C1.34 2 0.68 2 0 2 C0 1.34 0 0.68 0 0 Z " fill="#FEFEFF" transform="translate(82,193)"/>
<path d="M0 0 C3 1 3 1 3 1 Z " fill="#FEFEFF" transform="translate(64,187)"/>
<path d="M0 0 C0.66 0.66 1.32 1.32 2 2 C1.34 2 0.68 2 0 2 C0 1.34 0 0.68 0 0 Z " fill="#FEFEFE" transform="translate(129,160)"/>
<path d="M0 0 C0.66 0.66 1.32 1.32 2 2 C1.34 2 0.68 2 0 2 C0 1.34 0 0.68 0 0 Z " fill="#FEFFFF" transform="translate(96,159)"/>
<path d="M0 0 C0.66 0 1.32 0 2 0 C1.67 0.66 1.34 1.32 1 2 C0.67 1.34 0.34 0.68 0 0 Z " fill="#FEFEFF" transform="translate(146,158)"/>
<path d="M0 0 C0.33 0.66 0.66 1.32 1 2 C0.34 1.67 -0.32 1.34 -1 1 C-0.67 0.67 -0.34 0.34 0 0 Z " fill="#FEFEFF" transform="translate(94,155)"/>
<path d="M0 0 C0.66 0.66 1.32 1.32 2 2 C1.34 2 0.68 2 0 2 C0 1.34 0 0.68 0 0 Z " fill="#FDFDFE" transform="translate(193,60)"/>
<path d="" fill="#FCFDFD" transform="translate(0,0)"/>
<path d="M0 0 C2 1 2 1 2 1 Z " fill="#FDFEFE" transform="translate(96,317)"/>
<path d="M0 0 C2 1 2 1 2 1 Z " fill="#FDFDFE" transform="translate(110,282)"/>
<path d="M0 0 C2 1 2 1 2 1 Z " fill="#FDFDFE" transform="translate(53,282)"/>
<path d="" fill="#FEFEFF" transform="translate(0,0)"/>
<path d="" fill="#FDFDFE" transform="translate(0,0)"/>
<path d="M0 0 C2 1 2 1 2 1 Z " fill="#FEFEFF" transform="translate(121,248)"/>
<path d="" fill="#FDFDFE" transform="translate(0,0)"/>
<path d="M0 0 C2 1 2 1 2 1 Z " fill="#FEFEFF" transform="translate(114,227)"/>
<path d="" fill="#FEFEFF" transform="translate(0,0)"/>
<path d="" fill="#FEFEFF" transform="translate(0,0)"/>
<path d="" fill="#FFFFFF" transform="translate(0,0)"/>
<path d="" fill="#FFFFFF" transform="translate(0,0)"/>
<path d="" fill="#FEFFFF" transform="translate(0,0)"/>
<path d="M0 0 C2 1 2 1 2 1 Z " fill="#FEFEFF" transform="translate(99,207)"/>
<path d="" fill="#FFFFFF" transform="translate(0,0)"/>
<path d="" fill="#FFFFFF" transform="translate(0,0)"/>
<path d="" fill="#FEFFFF" transform="translate(0,0)"/>
<path d="M0 0 C2 1 2 1 2 1 Z " fill="#FEFEFF" transform="translate(105,198)"/>
<path d="" fill="#FFFFFF" transform="translate(0,0)"/>
<path d="M0 0 C2 1 2 1 2 1 Z " fill="#FEFEFE" transform="translate(62,192)"/>
<path d="M0 0 C2 1 2 1 2 1 Z " fill="#FEFEFE" transform="translate(187,189)"/>
<path d="M0 0 C2 1 2 1 2 1 Z " fill="#FFFFFF" transform="translate(180,188)"/>
<path d="M0 0 C2 1 2 1 2 1 Z " fill="#FEFEFF" transform="translate(61,188)"/>
<path d="M0 0 C2 1 2 1 2 1 Z " fill="#FDFEFE" transform="translate(178,187)"/>
<path d="M0 0 C2 1 2 1 2 1 Z " fill="#FFFFFF" transform="translate(175,187)"/>
<path d="" fill="#FFFFFF" transform="translate(0,0)"/>
<path d="" fill="#FDFDFE" transform="translate(0,0)"/>
<path d="" fill="#FEFFFF" transform="translate(0,0)"/>
<path d="" fill="#FEFEFE" transform="translate(0,0)"/>
<path d="M0 0 C2 1 2 1 2 1 Z " fill="#FEFFFF" transform="translate(90,183)"/>
<path d="M0 0 C2 1 2 1 2 1 Z " fill="#FFFFFF" transform="translate(146,181)"/>
<path d="M0 0 C2 1 2 1 2 1 Z " fill="#FEFFFF" transform="translate(102,181)"/>
<path d="" fill="#FEFEFE" transform="translate(0,0)"/>
<path d="M0 0 C2 1 2 1 2 1 Z " fill="#FEFFFF" transform="translate(105,177)"/>
<path d="M0 0 C2 1 2 1 2 1 Z " fill="#FDFEFE" transform="translate(133,176)"/>
<path d="M0 0 C2 1 2 1 2 1 Z " fill="#FDFEFE" transform="translate(125,172)"/>
<path d="M0 0 C2 1 2 1 2 1 Z " fill="#FEFEFE" transform="translate(119,171)"/>
<path d="" fill="#FEFEFF" transform="translate(0,0)"/>
<path d="M0 0 C2 1 2 1 2 1 Z " fill="#FDFEFE" transform="translate(108,166)"/>
<path d="M0 0 C2 1 2 1 2 1 Z " fill="#FEFEFE" transform="translate(110,165)"/>
<path d="" fill="#FEFEFF" transform="translate(0,0)"/>
<path d="" fill="#FEFEFF" transform="translate(0,0)"/>
<path d="" fill="#FEFEFE" transform="translate(0,0)"/>
<path d="M0 0 C2 1 2 1 2 1 Z " fill="#FEFEFE" transform="translate(88,152)"/>
<path d="" fill="#FEFEFF" transform="translate(0,0)"/>
<path d="" fill="#FEFEFE" transform="translate(0,0)"/>
<path d="M0 0 C2 1 2 1 2 1 Z " fill="#FDFEFE" transform="translate(83,148)"/>
<path d="M0 0 C2 1 2 1 2 1 Z " fill="#FEFEFF" transform="translate(124,142)"/>
<path d="M0 0 C2 1 2 1 2 1 Z " fill="#FEFEFF" transform="translate(123,138)"/>
<path d="M0 0 C2 1 2 1 2 1 Z " fill="#FEFEFF" transform="translate(188,64)"/>
<path d="" fill="#FDFEFE" transform="translate(0,0)"/>
<path d="M0 0 C2 1 2 1 2 1 Z " fill="#FEFEFF" transform="translate(142,19)"/>
<path d="" fill="#FEFEFE" transform="translate(0,0)"/>
<path d="" fill="#FEFEFF" transform="translate(0,0)"/>
<path d="" fill="#FEFEFF" transform="translate(0,0)"/>
<path d="" fill="#FEFEFF" transform="translate(0,0)"/>
<path d="" fill="#FDFEFE" transform="translate(0,0)"/>
<path d="" fill="#FDFEFE" transform="translate(0,0)"/>
<path d="" fill="#FDFDFE" transform="translate(0,0)"/>
<path d="" fill="#FEFEFF" transform="translate(0,0)"/>
<path d="" fill="#FEFEFF" transform="translate(0,0)"/>
<path d="" fill="#FDFDFE" transform="translate(0,0)"/>
<path d="" fill="#FEFEFF" transform="translate(0,0)"/>
<path d="" fill="#FEFEFF" transform="translate(0,0)"/>
<path d="" fill="#FEFEFF" transform="translate(0,0)"/>
<path d="" fill="#FEFEFF" transform="translate(0,0)"/>
<path d="" fill="#FEFEFF" transform="translate(0,0)"/>
<path d="" fill="#FDFEFE" transform="translate(0,0)"/>
<path d="" fill="#FEFEFF" transform="translate(0,0)"/>
<path d="" fill="#FDFDFE" transform="translate(0,0)"/>
<path d="" fill="#FEFEFF" transform="translate(0,0)"/>
<path d="" fill="#FDFEFE" transform="translate(0,0)"/>
<path d="" fill="#FEFEFF" transform="translate(0,0)"/>
<path d="" fill="#FEFEFF" transform="translate(0,0)"/>
<path d="" fill="#FEFEFF" transform="translate(0,0)"/>
<path d="" fill="#FEFEFF" transform="translate(0,0)"/>
<path d="" fill="#FEFEFF" transform="translate(0,0)"/>
<path d="" fill="#FDFEFE" transform="translate(0,0)"/>
<path d="" fill="#FEFEFF" transform="translate(0,0)"/>
<path d="" fill="#FDFDFE" transform="translate(0,0)"/>
<path d="" fill="#FEFEFF" transform="translate(0,0)"/>
<path d="" fill="#FEFEFE" transform="translate(0,0)"/>
<path d="" fill="#FEFEFE" transform="translate(0,0)"/>
<path d="" fill="#FEFEFF" transform="translate(0,0)"/>
<path d="" fill="#FCFDFD" transform="translate(0,0)"/>
<path d="" fill="#FDFEFE" transform="translate(0,0)"/>
<path d="" fill="#FEFEFF" transform="translate(0,0)"/>
<path d="" fill="#FDFEFE" transform="translate(0,0)"/>
<path d="" fill="#FEFEFF" transform="translate(0,0)"/>
<path d="" fill="#FEFEFF" transform="translate(0,0)"/>
<path d="" fill="#FDFEFE" transform="translate(0,0)"/>
<path d="" fill="#FDFEFE" transform="translate(0,0)"/>
<path d="" fill="#FEFEFF" transform="translate(0,0)"/>
<path d="" fill="#FDFEFE" transform="translate(0,0)"/>
<path d="" fill="#FEFEFF" transform="translate(0,0)"/>
<path d="" fill="#FEFEFF" transform="translate(0,0)"/>
<path d="" fill="#FDFEFE" transform="translate(0,0)"/>
<path d="" fill="#FEFEFF" transform="translate(0,0)"/>
<path d="" fill="#FDFEFE" transform="translate(0,0)"/>
<path d="" fill="#FEFEFF" transform="translate(0,0)"/>
<path d="" fill="#FEFEFF" transform="translate(0,0)"/>
<path d="" fill="#FDFEFE" transform="translate(0,0)"/>
<path d="" fill="#FEFEFF" transform="translate(0,0)"/>
<path d="" fill="#FEFEFF" transform="translate(0,0)"/>
<path d="" fill="#FEFEFF" transform="translate(0,0)"/>
<path d="" fill="#FEFEFF" transform="translate(0,0)"/>
<path d="" fill="#FDFEFE" transform="translate(0,0)"/>
<path d="" fill="#FEFEFF" transform="translate(0,0)"/>
<path d="" fill="#FEFEFF" transform="translate(0,0)"/>
<path d="" fill="#FEFEFF" transform="translate(0,0)"/>
<path d="" fill="#FEFFFF" transform="translate(0,0)"/>
<path d="" fill="#FDFEFE" transform="translate(0,0)"/>
<path d="" fill="#FEFEFF" transform="translate(0,0)"/>
<path d="" fill="#FEFEFF" transform="translate(0,0)"/>
<path d="" fill="#FEFEFE" transform="translate(0,0)"/>
<path d="" fill="#FFFFFF" transform="translate(0,0)"/>
<path d="" fill="#FFFFFF" transform="translate(0,0)"/>
<path d="" fill="#FEFEFF" transform="translate(0,0)"/>
<path d="" fill="#FDFEFE" transform="translate(0,0)"/>
<path d="" fill="#FFFFFF" transform="translate(0,0)"/>
<path d="" fill="#FFFFFF" transform="translate(0,0)"/>
<path d="" fill="#FEFEFF" transform="translate(0,0)"/>
<path d="" fill="#FEFEFE" transform="translate(0,0)"/>
<path d="" fill="#FFFFFF" transform="translate(0,0)"/>
<path d="" fill="#FFFFFF" transform="translate(0,0)"/>
<path d="" fill="#FFFFFF" transform="translate(0,0)"/>
<path d="" fill="#FEFFFF" transform="translate(0,0)"/>
<path d="" fill="#FDFEFE" transform="translate(0,0)"/>
<path d="" fill="#FFFFFF" transform="translate(0,0)"/>
<path d="" fill="#FEFFFF" transform="translate(0,0)"/>
<path d="" fill="#FFFFFF" transform="translate(0,0)"/>
<path d="" fill="#FEFFFF" transform="translate(0,0)"/>
<path d="" fill="#FFFFFF" transform="translate(0,0)"/>
<path d="" fill="#FEFFFF" transform="translate(0,0)"/>
<path d="" fill="#FFFFFF" transform="translate(0,0)"/>
<path d="" fill="#FEFEFE" transform="translate(0,0)"/>
<path d="" fill="#FEFFFF" transform="translate(0,0)"/>
<path d="" fill="#FDFEFE" transform="translate(0,0)"/>
<path d="" fill="#FEFFFF" transform="translate(0,0)"/>
<path d="" fill="#FFFFFF" transform="translate(0,0)"/>
<path d="" fill="#FEFFFF" transform="translate(0,0)"/>
<path d="" fill="#FEFFFF" transform="translate(0,0)"/>
<path d="" fill="#FEFFFF" transform="translate(0,0)"/>
<path d="" fill="#FEFFFF" transform="translate(0,0)"/>
<path d="" fill="#FFFFFF" transform="translate(0,0)"/>
<path d="" fill="#FFFFFF" transform="translate(0,0)"/>
<path d="" fill="#FFFFFF" transform="translate(0,0)"/>
<path d="" fill="#FEFFFF" transform="translate(0,0)"/>
<path d="" fill="#FFFFFF" transform="translate(0,0)"/>
<path d="" fill="#FDFEFE" transform="translate(0,0)"/>
<path d="" fill="#FFFFFF" transform="translate(0,0)"/>
<path d="" fill="#FFFFFF" transform="translate(0,0)"/>
<path d="" fill="#FEFFFF" transform="translate(0,0)"/>
<path d="" fill="#FFFFFF" transform="translate(0,0)"/>
<path d="" fill="#FEFFFF" transform="translate(0,0)"/>
<path d="" fill="#FFFFFF" transform="translate(0,0)"/>
<path d="" fill="#FEFFFF" transform="translate(0,0)"/>
<path d="" fill="#FEFFFF" transform="translate(0,0)"/>
<path d="" fill="#FFFFFF" transform="translate(0,0)"/>
<path d="" fill="#FFFFFF" transform="translate(0,0)"/>
<path d="" fill="#FFFFFF" transform="translate(0,0)"/>
<path d="" fill="#FFFFFF" transform="translate(0,0)"/>
<path d="" fill="#FFFFFF" transform="translate(0,0)"/>
<path d="" fill="#FEFFFF" transform="translate(0,0)"/>
<path d="" fill="#FFFFFF" transform="translate(0,0)"/>
<path d="" fill="#FDFEFE" transform="translate(0,0)"/>
<path d="" fill="#FFFFFF" transform="translate(0,0)"/>
<path d="" fill="#FFFFFF" transform="translate(0,0)"/>
<path d="" fill="#FFFFFF" transform="translate(0,0)"/>
<path d="" fill="#FFFFFF" transform="translate(0,0)"/>
<path d="" fill="#FFFFFF" transform="translate(0,0)"/>
<path d="" fill="#FEFFFF" transform="translate(0,0)"/>
<path d="" fill="#FFFFFF" transform="translate(0,0)"/>
<path d="" fill="#FEFFFF" transform="translate(0,0)"/>
<path d="" fill="#FFFFFF" transform="translate(0,0)"/>
<path d="" fill="#FFFFFF" transform="translate(0,0)"/>
<path d="" fill="#FFFFFF" transform="translate(0,0)"/>
<path d="" fill="#FFFFFF" transform="translate(0,0)"/>
<path d="" fill="#FEFFFF" transform="translate(0,0)"/>
<path d="" fill="#FEFEFF" transform="translate(0,0)"/>
<path d="" fill="#FEFEFF" transform="translate(0,0)"/>
<path d="" fill="#FFFFFF" transform="translate(0,0)"/>
<path d="" fill="#FFFFFF" transform="translate(0,0)"/>
<path d="" fill="#FFFFFF" transform="translate(0,0)"/>
<path d="" fill="#FFFFFF" transform="translate(0,0)"/>
<path d="" fill="#FFFFFF" transform="translate(0,0)"/>
<path d="" fill="#FEFEFF" transform="translate(0,0)"/>
<path d="" fill="#FFFFFF" transform="translate(0,0)"/>
<path d="" fill="#FFFFFF" transform="translate(0,0)"/>
<path d="" fill="#FFFFFF" transform="translate(0,0)"/>
<path d="" fill="#FFFFFF" transform="translate(0,0)"/>
<path d="" fill="#FFFFFF" transform="translate(0,0)"/>
<path d="" fill="#FFFFFF" transform="translate(0,0)"/>
<path d="" fill="#FFFFFF" transform="translate(0,0)"/>
<path d="" fill="#FFFFFF" transform="translate(0,0)"/>
<path d="" fill="#FEFEFE" transform="translate(0,0)"/>
<path d="" fill="#FEFEFF" transform="translate(0,0)"/>
<path d="" fill="#FFFFFF" transform="translate(0,0)"/>
<path d="" fill="#FFFFFF" transform="translate(0,0)"/>
<path d="" fill="#FEFEFF" transform="translate(0,0)"/>
<path d="" fill="#FFFFFF" transform="translate(0,0)"/>
<path d="" fill="#FEFFFF" transform="translate(0,0)"/>
<path d="" fill="#FFFFFF" transform="translate(0,0)"/>
<path d="" fill="#FEFEFF" transform="translate(0,0)"/>
<path d="" fill="#FFFFFF" transform="translate(0,0)"/>
<path d="" fill="#FFFFFF" transform="translate(0,0)"/>
<path d="" fill="#FFFFFF" transform="translate(0,0)"/>
<path d="" fill="#FEFEFF" transform="translate(0,0)"/>
<path d="" fill="#FFFFFF" transform="translate(0,0)"/>
<path d="" fill="#FFFFFF" transform="translate(0,0)"/>
<path d="" fill="#FFFFFF" transform="translate(0,0)"/>
<path d="" fill="#FFFFFF" transform="translate(0,0)"/>
<path d="" fill="#FFFFFF" transform="translate(0,0)"/>
<path d="" fill="#FEFFFF" transform="translate(0,0)"/>
<path d="" fill="#FEFFFF" transform="translate(0,0)"/>
<path d="" fill="#FFFFFF" transform="translate(0,0)"/>
<path d="" fill="#FFFFFF" transform="translate(0,0)"/>
<path d="" fill="#FEFFFF" transform="translate(0,0)"/>
<path d="" fill="#FEFEFF" transform="translate(0,0)"/>
<path d="" fill="#FEFFFF" transform="translate(0,0)"/>
<path d="" fill="#FFFFFF" transform="translate(0,0)"/>
<path d="" fill="#FFFFFF" transform="translate(0,0)"/>
<path d="" fill="#FEFEFE" transform="translate(0,0)"/>
<path d="" fill="#FEFEFF" transform="translate(0,0)"/>
<path d="" fill="#FFFFFF" transform="translate(0,0)"/>
<path d="" fill="#FFFFFF" transform="translate(0,0)"/>
<path d="" fill="#FFFFFF" transform="translate(0,0)"/>
<path d="" fill="#FEFFFF" transform="translate(0,0)"/>
<path d="" fill="#FFFFFF" transform="translate(0,0)"/>
<path d="" fill="#FEFFFF" transform="translate(0,0)"/>
<path d="" fill="#FEFFFF" transform="translate(0,0)"/>
<path d="" fill="#FFFFFF" transform="translate(0,0)"/>
<path d="" fill="#FEFFFF" transform="translate(0,0)"/>
<path d="" fill="#FFFFFF" transform="translate(0,0)"/>
<path d="" fill="#FEFFFF" transform="translate(0,0)"/>
<path d="" fill="#FFFFFF" transform="translate(0,0)"/>
<path d="" fill="#FFFFFF" transform="translate(0,0)"/>
<path d="" fill="#FEFFFF" transform="translate(0,0)"/>
<path d="" fill="#FFFFFF" transform="translate(0,0)"/>
<path d="" fill="#FFFFFF" transform="translate(0,0)"/>
<path d="" fill="#FEFEFF" transform="translate(0,0)"/>
<path d="" fill="#FEFFFF" transform="translate(0,0)"/>
<path d="" fill="#FEFFFF" transform="translate(0,0)"/>
<path d="" fill="#FFFFFF" transform="translate(0,0)"/>
<path d="" fill="#FEFEFF" transform="translate(0,0)"/>
<path d="" fill="#FEFFFF" transform="translate(0,0)"/>
<path d="" fill="#FFFFFF" transform="translate(0,0)"/>
<path d="" fill="#FEFEFF" transform="translate(0,0)"/>
<path d="" fill="#FFFFFF" transform="translate(0,0)"/>
<path d="" fill="#FFFFFF" transform="translate(0,0)"/>
<path d="" fill="#FEFEFF" transform="translate(0,0)"/>
<path d="" fill="#FFFFFF" transform="translate(0,0)"/>
<path d="" fill="#FEFFFF" transform="translate(0,0)"/>
<path d="" fill="#FEFEFF" transform="translate(0,0)"/>
<path d="" fill="#FEFFFF" transform="translate(0,0)"/>
<path d="" fill="#FEFEFF" transform="translate(0,0)"/>
<path d="" fill="#FEFEFF" transform="translate(0,0)"/>
<path d="" fill="#FFFFFF" transform="translate(0,0)"/>
<path d="" fill="#FDFEFE" transform="translate(0,0)"/>
<path d="" fill="#FEFEFF" transform="translate(0,0)"/>
<path d="" fill="#FEFEFF" transform="translate(0,0)"/>
<path d="" fill="#FFFFFF" transform="translate(0,0)"/>
<path d="" fill="#FFFFFF" transform="translate(0,0)"/>
<path d="" fill="#FDFEFE" transform="translate(0,0)"/>
<path d="" fill="#FEFFFF" transform="translate(0,0)"/>
<path d="" fill="#FEFEFF" transform="translate(0,0)"/>
<path d="" fill="#FFFFFF" transform="translate(0,0)"/>
<path d="" fill="#FEFEFF" transform="translate(0,0)"/>
<path d="" fill="#FFFFFF" transform="translate(0,0)"/>
<path d="" fill="#FEFFFF" transform="translate(0,0)"/>
<path d="" fill="#FEFFFF" transform="translate(0,0)"/>
<path d="" fill="#FFFFFF" transform="translate(0,0)"/>
<path d="" fill="#FDFEFE" transform="translate(0,0)"/>
<path d="" fill="#FFFFFF" transform="translate(0,0)"/>
<path d="" fill="#FFFFFF" transform="translate(0,0)"/>
<path d="" fill="#FFFFFF" transform="translate(0,0)"/>
<path d="" fill="#FFFFFF" transform="translate(0,0)"/>
<path d="" fill="#FFFFFF" transform="translate(0,0)"/>
<path d="" fill="#FEFFFF" transform="translate(0,0)"/>
<path d="" fill="#FEFEFF" transform="translate(0,0)"/>
<path d="" fill="#FFFFFF" transform="translate(0,0)"/>
<path d="" fill="#FEFFFF" transform="translate(0,0)"/>
<path d="" fill="#FFFFFF" transform="translate(0,0)"/>
<path d="" fill="#FFFFFF" transform="translate(0,0)"/>
<path d="" fill="#FEFEFF" transform="translate(0,0)"/>
<path d="" fill="#FEFEFF" transform="translate(0,0)"/>
<path d="" fill="#FDFEFE" transform="translate(0,0)"/>
<path d="" fill="#FDFEFE" transform="translate(0,0)"/>
<path d="" fill="#FEFEFF" transform="translate(0,0)"/>
<path d="" fill="#FFFFFF" transform="translate(0,0)"/>
<path d="" fill="#FFFFFF" transform="translate(0,0)"/>
<path d="" fill="#FDFEFE" transform="translate(0,0)"/>
<path d="" fill="#FEFEFF" transform="translate(0,0)"/>
<path d="" fill="#FEFEFE" transform="translate(0,0)"/>
<path d="" fill="#FDFEFE" transform="translate(0,0)"/>
<path d="" fill="#FEFEFF" transform="translate(0,0)"/>
<path d="" fill="#FEFEFF" transform="translate(0,0)"/>
<path d="" fill="#FDFEFE" transform="translate(0,0)"/>
<path d="" fill="#FEFEFF" transform="translate(0,0)"/>
<path d="" fill="#FDFDFE" transform="translate(0,0)"/>
<path d="" fill="#FEFEFF" transform="translate(0,0)"/>
<path d="" fill="#FEFEFE" transform="translate(0,0)"/>
<path d="" fill="#FEFEFF" transform="translate(0,0)"/>
<path d="" fill="#FEFEFF" transform="translate(0,0)"/>
<path d="" fill="#FEFEFF" transform="translate(0,0)"/>
<path d="" fill="#FEFEFF" transform="translate(0,0)"/>
<path d="" fill="#FDFEFE" transform="translate(0,0)"/>
<path d="" fill="#FEFEFF" transform="translate(0,0)"/>
<path d="" fill="#FEFEFF" transform="translate(0,0)"/>
<path d="" fill="#FEFEFF" transform="translate(0,0)"/>
<path d="" fill="#FBFCFD" transform="translate(0,0)"/>
<path d="" fill="#FEFEFF" transform="translate(0,0)"/>
<path d="" fill="#FDFEFE" transform="translate(0,0)"/>
<path d="" fill="#FEFEFF" transform="translate(0,0)"/>
<path d="" fill="#FDFEFE" transform="translate(0,0)"/>
<path d="" fill="#FEFEFF" transform="translate(0,0)"/>
<path d="" fill="#FEFEFF" transform="translate(0,0)"/>
<path d="" fill="#FEFEFF" transform="translate(0,0)"/>
<path d="" fill="#FEFEFF" transform="translate(0,0)"/>
<path d="" fill="#FEFEFF" transform="translate(0,0)"/>
<path d="" fill="#FEFEFF" transform="translate(0,0)"/>
<path d="" fill="#FEFEFF" transform="translate(0,0)"/>
<path d="" fill="#FEFEFF" transform="translate(0,0)"/>
<path d="" fill="#FEFEFF" transform="translate(0,0)"/>
<path d="" fill="#FEFEFF" transform="translate(0,0)"/>
<path d="" fill="#FEFEFF" transform="translate(0,0)"/>
<path d="" fill="#FEFEFF" transform="translate(0,0)"/>
<path d="" fill="#FEFEFF" transform="translate(0,0)"/>
<path d="" fill="#FEFEFF" transform="translate(0,0)"/>
<path d="" fill="#FDFDFE" transform="translate(0,0)"/>
<path d="" fill="#FEFEFE" transform="translate(0,0)"/>
<path d="" fill="#FEFEFF" transform="translate(0,0)"/>
</svg>
